<?xml version="1.0" standalone="no"?>
<!DOCTYPE svg PUBLIC "-//W3C//DTD SVG 20010904//EN"
 "http://www.w3.org/TR/2001/REC-SVG-20010904/DTD/svg10.dtd">
<svg version="1.0" xmlns="http://www.w3.org/2000/svg"
 width="2000.000000pt" height="2000.000000pt" viewBox="0 0 2000.000000 2000.000000"
 preserveAspectRatio="xMidYMid meet">

<g transform="translate(0.000000,2000.000000) scale(0.100000,-0.100000)"
fill="#000000" stroke="none">
<path d="M9740 16283 l-1 -38 -25 30 -26 30 5 -27 c2 -16 -1 -33 -9 -39 -24
-20 -16 -92 20 -185 34 -88 61 -199 35 -144 -22 45 -55 134 -78 205 -13 39
-30 78 -38 88 -20 21 -53 23 -53 2 0 -17 -14 -19 -39 -5 -14 7 -23 5 -36 -10
-10 -11 -26 -20 -37 -20 -24 0 -23 -19 7 -115 26 -85 31 -115 16 -115 -9 0
-61 121 -61 143 0 7 -7 23 -16 35 l-16 23 -33 -21 c-28 -17 -38 -19 -55 -10
-29 16 -50 6 -50 -24 0 -14 16 -69 35 -123 36 -101 44 -161 23 -168 -7 -2 -78
-11 -158 -20 -184 -20 -472 -77 -589 -115 -50 -17 -101 -30 -114 -30 -42 0
-399 -121 -547 -185 -80 -34 -212 -91 -293 -126 -82 -34 -169 -75 -194 -91
-25 -16 -100 -56 -167 -90 -66 -33 -170 -93 -231 -133 -60 -39 -179 -116 -264
-171 -85 -54 -178 -120 -205 -145 -28 -25 -93 -75 -144 -112 -217 -155 -691
-632 -847 -851 -16 -24 -50 -65 -75 -93 -98 -109 -183 -232 -323 -468 -16 -27
-44 -70 -62 -95 -18 -25 -43 -65 -55 -90 -12 -25 -54 -100 -92 -167 -38 -68
-84 -158 -103 -200 -18 -43 -45 -105 -60 -138 -39 -86 -110 -270 -161 -418
-25 -71 -53 -146 -64 -168 -11 -21 -29 -78 -41 -126 -11 -49 -35 -144 -54
-213 -19 -69 -41 -161 -49 -205 -8 -44 -25 -127 -37 -185 -13 -58 -26 -148
-30 -200 -10 -143 -29 -238 -48 -245 -9 -4 -164 -10 -345 -14 -248 -5 -330 -9
-334 -19 -2 -7 -21 -12 -45 -12 -23 0 -49 -5 -57 -10 -11 -7 -7 -10 17 -10 17
0 35 -4 38 -10 3 -5 34 -10 68 -10 56 -1 60 -2 43 -15 -11 -9 -30 -12 -50 -8
-30 5 -30 5 -11 -10 20 -16 20 -16 -1 -17 -13 0 -24 -8 -27 -20 -3 -12 -14
-21 -29 -21 -16 -1 -13 -4 12 -9 l35 -7 -40 -3 -40 -2 33 -9 c38 -11 43 -29 8
-29 -14 0 -28 -4 -31 -10 -3 -5 3 -10 14 -10 12 0 21 -4 21 -10 0 -5 -11 -10
-25 -10 -14 0 -25 -4 -25 -10 0 -5 11 -10 25 -10 40 0 125 -21 125 -31 0 -5
-9 -9 -20 -9 -23 0 -26 -10 -8 -28 9 -9 7 -12 -10 -12 -43 0 -21 -19 48 -41
63 -21 69 -25 64 -46 -4 -16 -1 -25 10 -29 16 -6 23 -44 8 -44 -4 0 -6 -18 -4
-40 3 -27 9 -40 19 -40 11 0 13 -3 5 -12 -18 -23 -25 -83 -10 -95 24 -18 155
-35 265 -33 149 2 165 1 158 -9 -3 -5 -1 -12 4 -16 6 -3 8 -12 5 -19 -4 -10 9
-15 46 -20 62 -8 57 -26 -8 -26 -36 0 -43 -3 -34 -12 17 -17 15 -25 -11 -32
l-22 -7 25 -11 c14 -6 43 -11 65 -12 31 -1 40 -5 43 -20 2 -11 -3 -25 -12 -31
-14 -11 -14 -14 4 -30 15 -14 20 -31 20 -71 0 -29 5 -65 10 -80 8 -19 7 -30
-1 -41 -9 -10 -9 -16 3 -26 10 -8 22 -53 33 -127 25 -171 44 -268 65 -340 11
-36 36 -130 55 -209 19 -79 49 -183 66 -230 17 -47 41 -124 54 -171 33 -112
31 -109 160 -380 134 -282 272 -532 387 -701 46 -68 93 -140 104 -159 12 -19
56 -77 100 -128 43 -52 92 -113 108 -137 l28 -44 -36 -93 c-38 -98 -52 -124
-243 -448 -76 -127 -137 -245 -162 -310 -30 -78 -59 -130 -110 -200 -75 -101
-157 -242 -190 -327 -11 -29 -36 -83 -55 -120 -58 -118 -137 -348 -108 -318 5
6 17 33 27 60 19 52 53 101 42 60 -2 -11 -12 -37 -21 -57 -14 -33 -14 -39 -1
-52 12 -11 13 -21 5 -41 -14 -37 -13 -58 4 -52 7 3 18 1 23 -4 6 -6 14 -4 23
6 19 23 31 18 24 -10 -4 -15 -1 -32 6 -40 10 -12 9 -20 -3 -38 -17 -27 -47
-121 -47 -149 0 -15 5 -18 19 -13 25 8 34 -20 26 -78 -7 -44 -7 -44 25 -45 18
0 33 5 37 14 9 23 23 16 23 -11 0 -14 5 -25 12 -25 6 0 8 -3 5 -6 -8 -9 43
-49 63 -49 8 0 23 3 33 8 13 6 17 3 17 -15 0 -44 12 -66 37 -73 17 -4 23 -11
19 -21 -3 -9 -1 -24 4 -35 9 -16 14 -17 29 -7 15 9 23 9 35 -1 21 -17 20 -34
-3 -79 -23 -46 -36 -138 -21 -147 6 -4 27 -7 46 -8 19 -1 34 -5 34 -10 0 -4
14 -13 30 -18 17 -6 30 -13 30 -16 0 -25 -62 -153 -89 -185 -23 -27 -31 -43
-23 -46 7 -2 9 -8 6 -14 -3 -5 8 -3 24 6 36 18 46 20 37 6 -3 -5 -7 -30 -9
-55 -2 -38 0 -45 16 -45 11 0 16 -4 13 -10 -10 -16 8 -11 35 10 42 33 58 18
20 -20 -26 -26 -16 -26 17 0 51 40 59 20 10 -26 -27 -26 -46 -48 -43 -51 9
-10 75 38 111 80 35 40 35 40 35 14 0 -27 0 -27 26 -10 l26 17 -7 -33 c-5 -26
-4 -32 6 -29 8 3 64 115 124 249 104 228 196 423 403 849 85 177 186 394 326
705 42 94 86 187 97 208 11 21 18 41 16 44 -7 6 -81 -133 -142 -265 -27 -56
-50 -100 -52 -98 -3 2 4 21 15 43 11 21 34 79 52 128 46 127 186 415 202 415
7 0 28 -13 47 -29 l34 -28 -13 -66 c-8 -37 -10 -70 -6 -74 9 -9 32 18 58 66
20 36 27 34 87 -17 33 -27 34 -30 24 -69 -24 -93 13 -122 67 -53 l31 40 62
-31 c34 -18 94 -52 132 -77 92 -59 212 -122 233 -122 9 0 31 -9 47 -21 87 -59
267 -137 475 -206 123 -41 238 -82 255 -91 69 -36 622 -170 771 -187 32 -3
118 -13 189 -22 139 -17 636 -25 651 -10 15 14 -16 24 -94 30 -293 24 -608 60
-662 76 -19 6 -51 11 -70 11 -55 0 -461 94 -545 127 -22 8 -69 23 -105 33 -36
10 -103 34 -150 53 -47 20 -123 47 -170 61 -106 31 -436 179 -510 229 -30 20
-60 37 -66 37 -16 0 -261 130 -321 170 -70 47 -75 56 -56 94 27 54 32 57 64
41 16 -9 30 -15 31 -14 2 2 14 -3 27 -10 17 -9 20 -15 12 -21 -9 -5 -5 -14 15
-29 32 -25 45 -20 19 9 -10 11 -15 20 -11 20 9 0 84 -38 116 -59 l24 -16 -29
-6 -30 -6 25 -11 c14 -6 37 -13 51 -16 14 -3 42 -17 62 -30 20 -14 37 -23 37
-20 0 4 11 -1 25 -10 13 -9 37 -16 53 -16 16 0 40 -8 53 -19 13 -10 40 -26 59
-36 19 -10 37 -21 40 -26 8 -12 99 -49 122 -49 11 0 32 -6 46 -14 15 -8 47
-21 72 -29 153 -50 292 -100 335 -122 28 -14 82 -31 120 -39 39 -7 133 -32
210 -55 77 -22 174 -45 215 -51 41 -5 100 -14 130 -19 250 -43 470 -63 470
-44 0 17 -29 24 -147 34 -61 5 -131 16 -155 24 -42 16 -142 35 -183 36 -23 1
-86 17 -195 51 -41 12 -86 21 -99 20 -13 -2 -31 4 -40 12 -9 8 -25 15 -36 14
-32 -2 -102 21 -115 37 -7 8 -26 15 -42 15 -33 0 -178 57 -178 70 0 5 -17 12
-37 16 -86 15 -189 46 -200 60 -6 9 -38 24 -71 34 -33 10 -104 42 -158 70
-109 58 -115 61 -164 82 -104 44 -141 64 -200 108 -36 26 -100 67 -142 90 -42
24 -89 53 -103 65 l-27 21 21 42 c12 23 24 42 27 42 3 0 24 -13 47 -29 23 -15
74 -44 112 -64 39 -19 98 -56 133 -82 34 -26 92 -58 129 -71 37 -14 113 -51
168 -84 55 -32 120 -64 145 -70 24 -7 81 -27 125 -45 44 -18 107 -40 141 -49
33 -9 94 -31 135 -50 41 -19 106 -42 144 -51 39 -9 113 -30 165 -46 107 -35
283 -76 380 -89 36 -4 106 -15 156 -24 51 -9 125 -19 165 -21 41 -2 133 -8
204 -14 163 -13 167 -13 161 -2 -9 15 -90 30 -271 51 -173 20 -292 42 -580
106 -156 35 -296 78 -595 184 -163 57 -489 201 -536 236 -16 13 -55 35 -86 48
-122 54 -397 226 -406 253 -9 30 30 21 94 -20 38 -24 94 -57 124 -72 30 -15
81 -47 113 -71 32 -24 80 -50 105 -58 26 -8 101 -46 167 -85 66 -39 130 -71
142 -71 12 0 58 -16 103 -35 45 -19 119 -46 163 -59 45 -13 116 -40 157 -60
41 -20 83 -36 93 -36 9 0 86 -20 170 -45 179 -54 448 -109 602 -125 61 -6 146
-15 189 -21 44 -5 118 -9 165 -9 l86 0 -44 20 c-24 11 -53 20 -65 20 -35 -1
-295 40 -386 60 -47 11 -103 22 -125 26 -22 3 -112 24 -200 46 -88 22 -179 44
-203 49 -24 5 -48 12 -54 15 -6 4 -52 22 -102 39 -255 89 -391 142 -496 192
-63 30 -131 61 -150 68 -20 7 -64 31 -99 54 -35 22 -68 41 -74 41 -30 0 -362
206 -401 249 -16 17 -16 21 0 60 9 22 20 41 25 41 5 0 37 -21 71 -46 35 -25
90 -58 123 -74 33 -15 87 -48 120 -74 32 -25 82 -53 109 -61 28 -9 74 -31 102
-49 64 -43 189 -106 208 -106 8 0 50 -16 93 -36 43 -19 118 -46 167 -60 49
-14 108 -36 130 -49 85 -49 579 -177 780 -202 50 -7 40 12 -11 22 -75 13 -410
97 -504 126 -53 16 -105 36 -115 44 -10 8 -28 15 -40 15 -11 0 -47 11 -80 24
-32 13 -116 45 -186 70 -70 25 -168 66 -219 91 -51 25 -98 45 -105 45 -7 0
-43 21 -79 46 -37 25 -79 50 -94 55 -48 19 -235 130 -341 203 -86 60 -105 77
-104 97 2 25 50 159 63 171 4 4 57 -25 118 -65 61 -39 132 -84 159 -99 27 -16
70 -43 96 -62 26 -19 69 -42 95 -52 27 -10 83 -39 125 -65 42 -25 105 -58 140
-72 167 -69 197 -80 253 -97 34 -10 85 -30 115 -45 157 -80 797 -236 960 -235
l65 1 -35 15 c-19 9 -73 22 -120 29 -47 8 -111 24 -142 35 -32 11 -73 20 -92
20 -60 0 -508 140 -601 187 -22 12 -83 34 -135 51 -113 36 -211 81 -346 158
-54 31 -143 81 -197 110 -130 71 -417 264 -417 281 0 24 28 13 106 -43 44 -31
114 -76 157 -100 43 -24 95 -57 115 -73 21 -16 76 -47 122 -69 47 -21 108 -55
137 -75 29 -19 76 -43 105 -52 29 -10 73 -28 98 -40 25 -12 83 -35 130 -50 47
-16 116 -43 155 -62 38 -18 79 -33 90 -33 12 0 57 -13 102 -29 72 -27 235 -69
438 -115 39 -9 127 -25 196 -36 70 -11 133 -22 140 -25 31 -11 293 -34 307
-26 22 12 6 18 -98 36 -52 9 -117 22 -145 30 -27 8 -103 23 -168 35 -142 25
-474 109 -612 155 -158 52 -469 178 -595 240 -255 126 -404 215 -632 377 l-98
69 25 50 c14 27 28 68 30 89 5 57 14 78 51 132 18 27 55 108 83 181 28 72 69
168 91 212 22 44 76 166 119 270 95 228 180 417 225 499 19 34 46 99 61 146
16 49 50 123 82 175 39 63 66 123 89 200 28 90 40 115 67 138 17 15 40 35 49
43 9 9 34 54 55 102 21 47 70 153 109 236 l71 151 294 -3 c168 -2 354 -9 434
-18 376 -39 439 -45 565 -50 251 -9 585 -34 659 -49 76 -15 125 -11 118 9 -2
6 -24 14 -48 17 -24 4 -69 14 -99 23 -32 10 -120 21 -215 26 -88 6 -178 12
-200 15 -22 4 -116 8 -210 11 -220 6 -352 18 -445 40 -64 15 -71 18 -50 26 43
16 396 -5 640 -37 60 -8 241 -17 420 -20 292 -5 647 -26 669 -39 5 -3 76 -8
157 -12 82 -3 191 -8 243 -11 l93 -6 40 -86 c22 -47 97 -205 168 -351 70 -146
163 -339 205 -430 43 -91 88 -178 100 -195 34 -47 245 -494 245 -520 0 -3 50
-118 110 -255 61 -136 113 -263 116 -282 4 -31 -1 -38 -103 -130 -225 -201
-304 -266 -436 -353 -191 -127 -274 -178 -348 -215 -89 -45 -252 -146 -274
-170 -9 -10 -82 -52 -162 -91 -79 -40 -146 -76 -149 -80 -2 -4 7 -16 22 -25
25 -17 29 -17 95 6 38 13 113 45 166 71 77 38 101 46 116 38 10 -6 16 -14 12
-17 -4 -4 -75 -41 -158 -82 -121 -60 -153 -80 -155 -98 -3 -18 1 -22 23 -22
28 0 158 51 256 100 32 17 66 30 75 30 10 0 32 12 51 26 54 41 53 17 -1 -31
-53 -46 -58 -75 -12 -75 31 0 40 -14 21 -30 -41 -34 15 -35 80 -2 l30 15 -19
-22 c-11 -11 -24 -30 -30 -42 -7 -13 -76 -50 -190 -103 -183 -84 -228 -115
-146 -102 56 9 190 60 266 102 68 38 114 44 114 16 0 -10 -15 -26 -35 -36 -36
-20 -49 -51 -17 -42 43 12 86 18 79 10 -12 -13 -258 -125 -309 -141 -51 -16
-112 -65 -106 -85 8 -22 43 -20 122 6 42 14 82 26 89 26 6 0 68 27 137 59 217
104 393 180 402 175 4 -3 8 -8 8 -12 0 -7 -9 -12 -125 -80 -73 -42 -398 -187
-479 -213 -102 -34 -155 -89 -84 -89 54 0 258 70 368 126 58 30 110 54 115 54
5 0 59 25 121 56 105 53 115 56 143 44 19 -7 28 -17 24 -26 -3 -8 2 -17 11
-20 28 -11 18 -20 -51 -49 -38 -16 -86 -41 -108 -55 -22 -15 -65 -36 -95 -48
-30 -11 -104 -46 -165 -76 -60 -31 -140 -66 -178 -77 -65 -19 -137 -68 -137
-93 0 -17 99 -12 135 6 17 9 62 25 100 35 39 11 104 39 144 62 40 22 85 44
100 48 23 6 25 5 12 -10 -23 -29 12 -21 40 9 36 38 77 58 94 44 10 -8 28 -3
77 21 58 30 61 33 38 40 -30 8 -30 8 40 15 30 2 69 7 87 10 33 5 172 98 208
139 11 12 79 62 150 111 174 117 185 126 185 141 0 7 16 20 36 28 20 8 59 31
85 50 27 19 52 35 55 35 8 0 35 -70 30 -79 -6 -9 -361 -265 -481 -346 -44 -30
-116 -73 -160 -96 -44 -23 -99 -55 -123 -71 -23 -16 -68 -41 -100 -55 -31 -13
-64 -31 -73 -39 -9 -8 -38 -23 -65 -34 -139 -53 -238 -95 -324 -135 -52 -25
-106 -45 -119 -45 -13 0 -44 -11 -68 -25 -36 -22 -43 -31 -43 -57 l0 -31 73 6
c73 5 266 67 332 106 17 10 69 33 116 50 112 43 314 141 419 204 183 110 407
252 445 284 58 48 222 163 233 163 6 0 25 -37 43 -82 43 -108 115 -257 136
-280 9 -10 24 -18 33 -18 33 0 33 54 2 145 -12 34 -22 246 -12 240 4 -2 17
-32 29 -65 18 -49 26 -60 44 -60 18 0 31 -15 60 -70 59 -109 77 -108 58 2 -18
100 -83 270 -132 343 l-40 60 38 32 c21 18 41 33 45 33 12 0 85 -144 128 -253
23 -59 61 -136 83 -170 68 -105 96 -155 194 -345 52 -101 121 -221 152 -265
32 -45 76 -111 97 -147 43 -72 106 -140 129 -140 17 0 29 40 21 68 -4 11 -20
37 -37 58 -21 27 -26 40 -17 42 7 3 18 11 25 20 9 11 16 12 26 4 8 -7 16 -9
20 -6 3 3 10 -3 16 -14 6 -11 8 -22 5 -25 -11 -11 37 -77 55 -77 10 0 26 -9
36 -20 21 -23 39 -14 49 23 4 18 13 23 40 24 30 1 42 -7 88 -56 30 -31 87 -98
127 -148 73 -91 98 -113 88 -73 -6 25 -2 25 30 0 14 -11 38 -20 52 -20 15 0
32 -5 39 -12 17 -17 28 0 14 22 -16 27 -15 30 8 30 24 0 26 13 5 30 -18 15
-19 30 -2 30 6 0 34 11 60 25 26 14 52 23 57 20 6 -4 13 1 16 9 4 11 14 13 35
9 25 -5 29 -2 29 17 0 13 8 24 20 27 23 6 25 14 9 30 -18 18 0 33 41 33 27 0
42 6 49 18 6 10 21 17 38 17 24 0 29 5 31 29 5 43 -15 111 -60 200 -56 109
-25 92 34 -19 47 -87 61 -105 86 -105 31 0 2 63 -142 306 -59 100 -310 567
-438 814 -39 74 -122 233 -185 352 -62 120 -158 315 -213 434 l-99 217 21 29
c11 17 32 57 47 91 32 77 116 231 148 273 13 18 39 69 58 115 18 46 50 116 70
154 40 74 155 375 155 403 0 9 12 42 26 72 40 82 131 435 178 689 9 47 18 86
20 88 2 2 48 -5 102 -16 99 -20 380 -47 591 -58 94 -5 121 -3 159 12 65 25
159 15 439 -45 50 -11 115 -22 145 -25 51 -6 54 -5 36 9 -24 20 -17 20 59 1
75 -18 100 -18 58 1 -42 18 -42 32 0 36 l32 4 -35 16 -35 16 31 1 c40 1 50 24
18 41 -32 18 -30 30 4 31 27 1 27 1 -5 11 -49 16 -41 32 12 25 56 -8 61 10 5
19 -36 6 -57 24 -28 24 6 0 4 8 -6 19 -17 19 -17 20 11 24 23 3 22 4 -10 6
-47 1 -247 41 -267 52 -12 7 -11 8 5 9 14 0 16 3 8 11 -7 7 -17 8 -29 1 -13
-6 -46 -4 -97 4 -97 17 -151 39 -141 56 15 24 11 48 -8 48 -22 0 -24 16 -2 28
23 13 11 28 -27 36 -88 17 19 13 249 -10 61 -6 72 -5 72 8 0 22 22 28 105 28
76 0 104 13 63 29 l-23 10 25 0 c15 1 20 5 15 10 -6 6 -41 11 -80 13 -53 2
-70 6 -70 18 0 11 12 13 50 11 28 -1 61 2 75 8 21 8 16 10 -35 12 l-60 3 50 3
c53 4 88 23 43 23 -15 0 -30 5 -33 10 -4 6 7 10 25 10 20 0 29 4 24 11 -3 6
-17 8 -30 5 -29 -8 -104 3 -104 15 0 5 30 9 66 9 61 0 66 1 61 20 -3 11 -1 23
4 26 23 14 -7 24 -54 18 -57 -6 -451 30 -489 45 -20 8 -16 10 22 11 61 1 84
15 46 30 -29 11 -252 54 -343 66 -29 3 -57 12 -62 18 -5 6 -6 29 -1 54 4 23 4
44 0 47 -4 2 -26 7 -49 11 -23 4 -48 12 -54 18 -7 6 -23 17 -37 23 -25 12 -25
12 8 12 51 1 37 21 -15 23 l-48 1 50 6 c75 9 44 18 -87 26 -65 4 -118 11 -118
16 0 5 57 9 128 9 195 1 124 17 -102 23 -132 4 -203 10 -210 18 -8 9 43 10
217 6 207 -5 266 0 205 17 -13 3 -117 9 -231 13 -243 7 -221 -7 -231 148 -12
185 -27 309 -58 495 -36 218 -129 608 -164 694 -14 34 -30 92 -35 129 -5 43
-32 128 -72 230 -35 89 -81 207 -101 262 -21 55 -47 123 -58 150 -32 79 -203
404 -262 500 -30 47 -62 108 -71 135 -9 27 -36 71 -59 97 -24 26 -80 104 -126
173 -101 151 -284 394 -354 471 -28 30 -87 95 -131 143 -99 109 -411 417 -523
517 -46 41 -122 102 -169 136 -47 34 -102 77 -122 96 -55 53 -427 295 -591
384 -427 233 -563 291 -830 354 -149 34 -160 35 -160 10 0 -14 11 -23 38 -31
20 -7 53 -20 72 -30 37 -18 67 -29 165 -62 188 -62 531 -240 789 -409 56 -37
117 -74 136 -84 58 -30 143 -87 180 -121 19 -18 72 -61 117 -96 109 -84 263
-210 304 -250 19 -18 59 -52 89 -77 95 -79 450 -450 500 -523 14 -21 35 -43
48 -50 13 -7 48 -51 79 -98 31 -47 75 -107 99 -133 49 -55 143 -183 191 -260
18 -29 46 -72 63 -97 38 -55 113 -182 136 -229 9 -19 33 -60 54 -91 21 -31 46
-74 55 -96 9 -21 36 -73 60 -114 24 -41 47 -88 51 -105 4 -16 26 -69 50 -116
23 -47 46 -102 49 -123 4 -20 18 -52 30 -70 12 -18 34 -67 48 -107 87 -255
105 -310 111 -345 4 -21 24 -93 46 -159 58 -180 118 -445 130 -580 7 -66 18
-148 26 -182 16 -72 18 -113 5 -113 -10 0 -13 8 -31 88 -14 59 -27 73 -46 47
-8 -10 -17 -15 -21 -12 -3 4 -12 73 -18 155 -9 108 -18 159 -33 191 -11 24
-18 50 -15 57 3 8 -4 44 -15 81 -12 38 -25 96 -31 130 -5 34 -17 75 -25 92 -9
16 -16 35 -16 41 0 6 -9 30 -20 52 -11 23 -20 58 -20 77 0 20 -11 60 -25 88
-13 29 -29 78 -34 108 -13 71 -74 211 -90 207 -7 -1 -10 2 -6 8 7 11 -13 85
-31 115 -7 11 -15 31 -19 45 -23 84 -194 435 -255 525 -15 22 -52 88 -84 146
-31 59 -63 113 -72 120 -9 7 -27 36 -41 63 -14 28 -41 66 -59 84 -19 18 -34
39 -34 46 0 7 -9 21 -20 31 -11 10 -33 41 -49 69 -16 28 -49 71 -73 96 -46 47
-55 60 -87 128 -11 23 -24 42 -30 42 -14 0 -71 57 -107 105 -55 76 -193 205
-220 205 -13 0 -24 5 -24 10 0 6 10 10 23 10 19 0 15 7 -31 51 -42 41 -57 50
-77 45 -30 -8 -43 11 -19 29 17 12 16 16 -26 54 -35 32 -50 40 -69 36 -19 -5
-22 -3 -17 11 9 22 -40 74 -69 74 -12 0 -37 16 -56 37 -25 26 -29 34 -14 29
16 -6 14 -1 -9 23 -17 18 -40 31 -53 31 -31 0 -73 28 -73 49 0 9 -14 24 -30
33 -28 16 -30 16 -30 0 0 -15 -1 -15 -17 1 -13 13 -15 20 -6 25 8 5 1 20 -22
47 -19 22 -34 34 -35 27 0 -8 -26 10 -57 38 -42 37 -64 50 -80 47 -13 -2 -23
-1 -23 2 0 4 -15 11 -32 16 -30 9 -39 32 -11 29 20 -2 3 23 -23 35 -35 16 -49
14 -34 -4 18 -22 -2 -18 -41 8 -22 15 -35 32 -37 50 -4 30 -26 36 -36 11 -6
-15 -9 -15 -29 4 -12 11 -71 46 -130 76 -60 31 -127 72 -150 91 -23 20 -47 33
-55 30 -7 -3 -51 17 -96 44 -110 65 -226 115 -338 147 -50 14 -101 32 -112 40
-26 18 -99 19 -94 2 3 -7 14 -13 24 -14 11 -1 32 -9 46 -18 15 -10 53 -25 85
-35 32 -10 80 -32 107 -49 28 -18 55 -32 62 -32 17 0 148 -69 160 -85 6 -8 14
-12 17 -8 4 3 22 -6 41 -21 19 -14 38 -26 41 -26 3 0 21 -11 39 -25 18 -14 50
-31 72 -39 21 -8 38 -19 36 -26 -1 -6 2 -8 8 -5 7 4 21 -1 33 -12 12 -10 56
-41 97 -67 41 -27 95 -63 120 -79 25 -17 65 -44 90 -61 25 -16 72 -52 105 -78
33 -26 66 -48 74 -48 8 0 47 -34 88 -75 40 -41 77 -75 82 -75 47 0 731 -681
731 -727 0 -5 25 -33 55 -63 31 -30 73 -84 95 -120 21 -36 63 -91 93 -122 30
-32 88 -110 128 -173 155 -242 249 -399 249 -417 0 -6 16 -35 36 -65 51 -77
201 -393 222 -467 9 -33 24 -68 34 -76 20 -17 142 -367 157 -452 6 -32 23 -91
39 -130 16 -40 37 -109 46 -153 10 -44 27 -105 38 -135 18 -50 51 -259 42
-269 -2 -2 -10 2 -19 9 -23 19 -29 -9 -21 -97 7 -90 -11 -98 -30 -12 -6 30
-30 142 -54 249 -36 170 -91 365 -135 480 -8 19 -14 55 -15 80 0 25 -12 72
-26 105 -27 62 -116 299 -139 371 -7 23 -27 66 -44 96 -17 30 -40 81 -51 114
-11 32 -31 75 -44 95 -13 19 -38 64 -56 98 -17 35 -44 81 -61 103 -16 23 -29
45 -29 49 0 5 -13 29 -30 55 -16 26 -36 68 -45 94 -8 25 -31 62 -51 81 -19 18
-53 67 -75 107 -22 40 -64 102 -94 137 -30 35 -74 94 -98 132 -51 79 -145 196
-181 224 -13 10 -45 47 -69 82 -25 34 -148 163 -275 287 -307 300 -336 326
-399 362 -30 17 -68 48 -86 70 -18 22 -113 93 -222 165 -104 70 -199 135 -210
144 -11 10 -54 34 -95 55 -41 20 -95 51 -120 69 -111 79 -391 212 -570 270
-47 15 -107 35 -135 45 -66 24 -105 32 -105 22 0 -10 85 -52 106 -52 9 0 28
-8 42 -19 15 -10 68 -35 117 -56 193 -79 475 -236 740 -410 61 -40 132 -85
160 -100 27 -16 70 -47 95 -70 25 -23 70 -60 100 -82 30 -22 116 -96 190 -163
74 -67 162 -144 195 -170 104 -83 438 -445 553 -598 23 -31 71 -95 107 -142
164 -218 193 -257 205 -280 7 -14 36 -63 65 -110 96 -156 269 -474 297 -545
10 -27 29 -70 42 -95 13 -25 31 -70 41 -100 10 -30 30 -80 45 -110 38 -76 104
-265 136 -385 14 -55 38 -140 54 -190 43 -137 112 -434 104 -447 -9 -14 -23
-9 -34 13 -11 20 -51 177 -85 334 -10 44 -31 114 -48 155 -16 41 -35 109 -43
152 -7 43 -23 96 -34 118 -18 35 -44 106 -126 335 -34 97 -197 420 -277 551
-30 50 -61 111 -67 135 -8 28 -29 63 -59 95 -25 28 -61 78 -80 111 -18 34 -65
101 -103 149 -38 49 -90 120 -115 159 -25 38 -71 96 -102 130 -31 33 -74 83
-96 110 -74 94 -592 603 -637 626 -24 12 -72 49 -108 83 -74 69 -457 337 -522
365 -24 10 -70 36 -103 57 -172 111 -609 314 -676 314 -61 0 54 -87 159 -121
56 -18 316 -158 438 -236 60 -39 125 -78 144 -88 19 -10 46 -27 60 -39 14 -12
77 -52 139 -91 62 -38 138 -93 169 -120 32 -28 75 -64 97 -80 22 -16 107 -90
188 -165 82 -74 164 -146 183 -160 43 -32 330 -335 392 -414 26 -33 64 -77 84
-98 21 -21 61 -73 89 -116 29 -42 65 -91 81 -109 33 -34 113 -143 156 -211 15
-24 41 -65 59 -92 68 -103 323 -571 323 -593 0 -9 16 -46 35 -83 19 -37 42
-90 50 -117 8 -28 22 -61 30 -74 28 -43 145 -377 145 -414 0 -12 15 -67 33
-123 37 -110 62 -204 83 -309 8 -37 19 -77 25 -88 13 -25 3 -88 -15 -95 -6 -2
-28 2 -48 11 -33 13 -38 20 -48 72 -22 109 -98 388 -119 436 -11 27 -26 78
-31 115 -6 37 -22 92 -35 122 -13 30 -47 118 -75 195 -70 190 -141 348 -228
510 -27 50 -79 146 -115 213 -36 68 -74 133 -85 145 -11 12 -49 67 -85 122
-93 143 -231 333 -280 385 -22 24 -74 85 -115 135 -119 144 -535 553 -624 613
-43 29 -85 64 -95 78 -9 14 -40 42 -69 62 -29 21 -124 87 -211 147 -87 61
-185 123 -218 138 -33 16 -69 37 -80 48 -29 26 -378 215 -444 240 -58 21 -110
22 -56 0 108 -44 451 -248 651 -387 32 -23 97 -65 144 -94 47 -29 111 -77 142
-106 31 -30 62 -54 69 -54 7 0 43 -30 79 -67 101 -103 260 -248 307 -282 22
-16 49 -42 60 -56 16 -24 32 -41 64 -71 51 -48 220 -233 224 -246 3 -9 15 -20
26 -23 10 -4 19 -13 19 -21 0 -7 29 -46 65 -85 36 -39 75 -89 85 -110 11 -20
43 -66 72 -100 29 -35 60 -75 68 -90 8 -15 34 -50 58 -79 23 -28 42 -62 42
-76 0 -13 14 -38 34 -57 35 -36 79 -106 91 -147 4 -14 13 -32 20 -40 7 -8 37
-62 66 -120 29 -58 66 -123 81 -144 16 -22 38 -72 50 -110 11 -39 27 -75 35
-79 7 -4 13 -16 13 -25 0 -25 44 -129 64 -151 16 -18 29 -55 42 -121 3 -14 15
-42 26 -63 20 -39 43 -109 58 -182 16 -74 31 -127 42 -148 12 -24 40 -125 63
-232 9 -38 20 -79 25 -90 12 -28 22 -128 14 -149 -6 -16 -8 -16 -29 4 -34 32
-40 12 -39 -115 l1 -110 -12 75 c-14 81 -38 150 -53 150 -5 0 -17 -12 -27 -26
-13 -20 -19 -23 -31 -13 -8 6 -14 21 -14 33 0 41 -93 392 -116 438 -16 32 -24
65 -24 99 0 40 -10 74 -44 149 -25 53 -50 119 -57 146 -7 27 -20 65 -29 84
-10 19 -23 53 -30 75 -17 52 -170 363 -241 490 -31 55 -60 115 -64 133 -4 18
-21 47 -39 65 -34 35 -136 187 -136 204 0 5 -10 18 -21 29 -12 10 -52 64 -89
119 -37 55 -80 111 -95 125 -15 14 -52 58 -82 98 -30 40 -61 76 -69 79 -8 3
-26 21 -39 41 -37 55 -439 457 -492 493 -27 17 -73 55 -103 84 -90 85 -405
310 -474 339 -21 9 -53 29 -71 45 -18 15 -68 48 -111 71 -44 24 -97 55 -119
70 -45 30 -136 78 -205 109 -25 11 -76 33 -114 50 -69 31 -96 38 -96 24 0 -8
11 -15 170 -103 137 -76 425 -261 655 -422 235 -163 749 -626 863 -778 14 -19
49 -60 77 -90 29 -30 64 -74 78 -97 15 -23 35 -47 46 -53 11 -5 34 -36 52 -67
18 -32 56 -85 84 -118 58 -69 108 -141 186 -270 124 -206 351 -653 368 -723 5
-20 25 -71 44 -112 19 -41 56 -145 82 -230 25 -85 59 -198 75 -250 41 -131 90
-338 90 -377 0 -45 -18 -42 -25 5 -13 74 -78 319 -107 401 -16 46 -34 109 -39
139 -8 55 -89 284 -151 432 -47 111 -167 360 -187 389 -10 14 -43 73 -72 131
-66 131 -173 301 -243 388 -29 37 -79 106 -109 155 -31 48 -80 111 -109 140
-29 30 -66 71 -81 93 -51 71 -500 525 -539 545 -20 10 -63 45 -95 77 -60 61
-165 142 -266 206 -31 20 -72 49 -90 65 -17 16 -57 41 -87 56 -30 15 -77 44
-105 65 -85 65 -342 210 -515 290 l-165 77 -37 69 c-20 38 -46 88 -57 112 -22
42 -41 55 -41 26 0 -8 9 -32 20 -52 11 -20 38 -85 60 -144 24 -62 70 -152 110
-217 87 -139 126 -215 161 -316 80 -232 125 -345 156 -388 18 -26 42 -70 53
-97 11 -28 34 -78 51 -112 18 -35 44 -99 60 -143 81 -230 122 -335 153 -385
53 -86 176 -332 176 -352 0 -10 13 -42 29 -71 16 -28 55 -117 86 -197 31 -80
68 -165 82 -190 14 -25 47 -103 74 -175 102 -277 187 -476 232 -543 34 -51
129 -270 124 -285 -9 -29 -222 407 -332 678 -42 105 -107 258 -145 340 -38 83
-80 177 -93 210 -40 96 -116 267 -137 305 -11 19 -32 62 -47 95 -15 33 -49
102 -75 154 -27 51 -71 149 -99 218 -27 69 -60 146 -73 171 -13 26 -31 72 -41
102 -10 30 -67 153 -127 272 -59 120 -108 223 -108 229 0 7 -20 56 -45 110
-25 54 -45 106 -45 116 0 23 -122 212 -127 196 -6 -18 23 -80 64 -135 20 -29
40 -68 43 -92 4 -22 15 -58 24 -80 25 -56 -1 -41 -36 22 -27 47 -138 295 -138
307 0 3 9 5 20 5 28 0 25 21 -11 66 -39 49 -79 134 -134 289 -57 161 -98 249
-125 268 -15 11 -20 21 -15 35 4 13 -4 40 -20 71 -14 28 -25 57 -25 65 0 8 21
50 47 93 151 255 321 718 274 747 -7 5 -11 -2 -11 -18 0 -14 -5 -28 -11 -31
-5 -4 -15 -19 -20 -33 -9 -24 -11 -25 -20 -9 -6 9 -18 17 -29 17 -13 0 -20 8
-22 28 -3 26 -4 26 -35 -22 -31 -47 -32 -48 -32 -20 0 42 -12 94 -22 94 -5 0
-11 -11 -15 -25 -7 -30 -24 -23 -24 10 0 32 -41 59 -76 51 -21 -6 -25 -4 -21
8 3 8 1 17 -6 19 -22 7 -43 -4 -61 -34 -34 -58 -44 -29 -21 63 7 26 6 27 -23
19 -27 -8 -31 -7 -36 15 -4 13 -4 35 0 49 8 30 1 31 -43 4 -21 -13 -63 -65
-108 -133 -88 -130 -111 -159 -123 -152 -5 3 -14 29 -21 58 -23 102 -86 252
-110 264 -13 7 -28 17 -34 23 -19 19 -27 12 -27 -26z m-190 -263 c18 -50 30
-93 27 -96 -5 -5 -67 158 -67 177 0 23 10 3 40 -81z m857 25 c-4 -8 -11 -15
-17 -15 -7 0 -7 6 0 21 13 23 26 19 17 -6z m-1121 -388 c2 -7 6 -26 7 -43 2
-26 -2 -30 -42 -40 -33 -7 -41 -13 -31 -19 12 -7 9 -11 -10 -16 -14 -4 -38 -7
-54 -8 -24 -1 -27 1 -16 14 18 21 -6 28 -60 16 -23 -5 -48 -7 -55 -5 -6 3 -25
0 -41 -7 -16 -6 -74 -19 -130 -29 -96 -17 -164 -39 -121 -40 9 0 17 -5 17 -11
0 -8 -16 -10 -52 -6 -39 5 -70 1 -116 -13 -35 -11 -78 -20 -95 -20 -29 0 -97
-37 -97 -52 0 -5 -18 -8 -41 -8 -39 0 -78 -14 -90 -32 -3 -5 -26 -9 -50 -10
-24 0 -57 -6 -74 -14 -16 -7 -76 -32 -133 -54 -57 -22 -125 -51 -150 -64 -26
-13 -60 -26 -77 -30 -16 -4 -37 -13 -45 -21 -8 -7 -50 -25 -92 -40 -43 -15
-78 -31 -78 -35 0 -5 -51 -33 -112 -63 -62 -30 -130 -68 -151 -85 -21 -17 -55
-36 -75 -43 -49 -15 -77 -39 -60 -51 10 -7 9 -8 -2 -7 -31 4 -146 -61 -133
-75 4 -4 0 -4 -10 0 -11 4 -29 -4 -51 -24 -19 -17 -51 -36 -70 -43 -22 -8 -36
-20 -36 -29 0 -19 -37 -56 -46 -47 -15 15 -127 -70 -120 -90 3 -7 -3 -17 -14
-23 -24 -13 -33 -13 -25 0 15 24 -18 6 -84 -45 -48 -38 -68 -60 -64 -71 4 -12
0 -14 -20 -9 -21 6 -28 2 -41 -23 -9 -17 -25 -33 -36 -37 -11 -3 -44 -33 -72
-66 -29 -32 -58 -59 -64 -59 -7 0 -23 -13 -36 -29 -14 -16 -34 -32 -46 -35
-12 -4 -34 -24 -50 -44 -15 -20 -87 -97 -160 -171 -74 -74 -152 -161 -173
-193 -22 -32 -48 -64 -59 -70 -10 -6 -16 -17 -13 -24 2 -6 -18 -31 -45 -55
-27 -24 -61 -62 -75 -84 -13 -22 -39 -53 -56 -69 -17 -17 -31 -38 -31 -47 0
-10 -4 -21 -10 -24 -5 -3 -14 -24 -20 -45 -6 -22 -17 -40 -24 -40 -18 0 -62
-49 -81 -90 -8 -19 -25 -47 -37 -62 -25 -32 -17 -50 10 -25 28 26 34 20 16
-14 -11 -21 -18 -28 -24 -20 -5 8 -22 -4 -53 -39 -44 -48 -61 -90 -37 -90 20
0 9 -19 -12 -22 -36 -5 -96 -104 -208 -343 -15 -33 -33 -75 -39 -94 -6 -18
-17 -39 -25 -45 -12 -10 -84 -184 -101 -246 -4 -14 -15 -38 -25 -55 -20 -33
-65 -193 -76 -268 -5 -35 -10 -47 -20 -43 -9 3 -16 -3 -18 -17 -3 -12 -8 -35
-11 -52 -3 -16 -10 -48 -14 -70 -4 -22 -12 -49 -18 -60 -6 -11 -16 -44 -23
-73 -6 -28 -16 -55 -21 -58 -5 -3 -9 -14 -9 -26 0 -14 5 -18 15 -14 10 3 15
-1 15 -13 0 -29 -11 -51 -24 -51 -18 0 -38 -75 -30 -115 5 -26 1 -41 -16 -65
-15 -20 -20 -40 -17 -57 3 -14 -4 -51 -14 -81 -10 -30 -19 -82 -19 -115 0 -35
-9 -90 -22 -129 -22 -67 -23 -69 -53 -66 -34 3 -33 -3 -21 158 5 52 17 124 27
159 10 35 19 79 19 98 0 19 6 61 14 92 8 31 20 92 25 135 6 43 24 122 41 175
16 53 42 141 58 196 16 55 39 127 50 160 11 33 25 78 30 100 16 63 137 370
159 401 11 16 30 55 42 88 25 67 163 336 196 381 12 17 25 41 28 55 3 14 26
53 51 87 25 34 52 77 60 96 8 20 43 72 78 117 34 45 78 107 96 138 44 75 132
190 207 270 33 36 76 88 95 118 52 78 349 390 443 465 45 35 126 107 182 160
55 53 114 104 130 112 17 9 52 38 80 66 27 28 54 51 61 51 6 0 30 14 54 31 97
71 329 223 390 257 36 19 110 63 165 97 112 69 410 218 662 330 118 52 228 89
307 104 31 6 66 16 79 23 36 20 323 106 457 138 290 68 524 98 536 67z m-204
-129 c-13 -13 -92 -20 -92 -9 0 16 15 21 59 21 35 0 42 -3 33 -12z m217 -105
c6 -21 11 -41 11 -44 0 -3 -35 -9 -77 -13 -97 -8 -392 -61 -493 -88 -142 -37
-375 -116 -490 -166 -452 -195 -616 -269 -690 -311 -47 -27 -96 -52 -110 -56
-14 -4 -54 -27 -90 -50 -36 -23 -84 -52 -107 -64 -23 -11 -44 -25 -48 -31 -9
-15 -119 -88 -176 -116 -28 -14 -73 -46 -101 -71 -28 -25 -63 -49 -78 -54 -14
-5 -43 -29 -63 -53 -20 -24 -56 -55 -81 -69 -59 -33 -113 -76 -200 -160 -39
-37 -109 -101 -156 -143 -47 -42 -103 -98 -125 -125 -22 -26 -86 -99 -142
-161 -161 -177 -185 -206 -228 -263 -22 -30 -64 -81 -93 -115 -29 -34 -66 -88
-82 -120 -16 -32 -34 -61 -40 -65 -5 -3 -41 -59 -79 -123 -38 -64 -79 -130
-92 -146 -13 -16 -49 -81 -81 -143 -32 -63 -72 -134 -89 -159 -17 -25 -41 -75
-54 -112 -13 -37 -43 -110 -68 -162 -25 -52 -65 -153 -90 -225 -25 -71 -66
-181 -91 -243 -25 -63 -46 -125 -46 -139 0 -32 -25 -135 -61 -248 -16 -50 -29
-104 -29 -122 0 -17 -11 -78 -25 -135 -14 -57 -30 -159 -36 -228 -13 -157 -21
-175 -74 -175 -40 0 -40 0 -43 43 -2 24 2 49 8 57 6 7 10 39 9 71 0 33 6 88
14 124 8 36 18 91 22 122 3 32 10 60 15 63 5 3 11 36 15 73 4 37 22 121 42
187 19 66 42 154 52 196 9 43 25 89 34 103 10 14 29 70 43 123 14 54 38 130
55 171 16 40 29 79 29 85 0 11 84 200 101 227 13 22 33 63 79 169 23 51 59
119 80 150 22 31 54 85 70 121 17 36 39 74 49 85 10 11 33 51 51 88 19 38 47
83 64 100 52 55 106 131 106 150 0 16 162 219 209 261 11 11 21 24 21 30 0 6
9 17 20 24 11 7 40 43 64 80 53 83 385 426 439 453 21 11 41 28 45 39 4 10 24
31 44 47 20 16 48 44 63 61 15 18 52 47 83 66 32 18 77 52 102 76 25 23 81 67
125 96 44 30 110 76 146 103 37 27 98 66 135 86 38 20 76 43 84 49 27 22 120
76 131 76 6 0 32 15 58 34 25 18 75 48 111 66 36 18 72 38 80 45 8 7 51 28 95
48 146 64 400 177 430 191 17 8 73 26 125 41 111 31 163 46 245 74 144 48 292
91 316 91 14 0 63 10 110 21 74 19 326 65 371 68 12 1 20 -11 27 -36z m41
-162 c-8 -5 -46 -10 -85 -11 -88 -3 -107 0 -75 10 35 11 179 12 160 1z m-1315
-21 c-9 -14 -75 -44 -82 -36 -3 3 1 6 10 6 9 0 22 9 29 20 7 11 21 20 31 20
10 0 15 -4 12 -10z m1120 0 c-3 -5 -29 -10 -56 -10 -28 0 -59 -5 -70 -11 -11
-6 -25 -8 -32 -6 -7 2 11 11 38 20 57 18 129 22 120 7z m-355 -64 c0 -2 -9 -6
-20 -9 -11 -3 -20 -1 -20 4 0 5 9 9 20 9 11 0 20 -2 20 -4z m624 -62 c18 -17
32 -62 22 -71 -3 -3 -72 -14 -153 -24 -81 -11 -184 -28 -228 -39 -44 -10 -107
-24 -140 -30 -33 -5 -109 -25 -170 -44 -60 -18 -127 -36 -148 -40 -21 -4 -71
-20 -110 -36 -40 -16 -85 -31 -102 -35 -64 -14 6 23 143 75 142 55 458 140
517 140 19 0 44 4 58 9 13 5 74 14 136 20 145 15 171 21 171 37 0 21 -141 18
-290 -6 -466 -76 -856 -226 -1298 -499 -74 -45 -159 -94 -190 -108 -31 -15
-66 -34 -77 -42 -18 -15 -19 -15 -6 2 37 48 414 270 622 367 413 194 658 266
1074 320 77 10 143 18 147 19 4 0 14 -6 22 -15z m-834 -4 c0 -5 -7 -10 -16
-10 -8 0 -12 5 -9 10 3 6 10 10 16 10 5 0 9 -4 9 -10z m-885 -10 c3 -5 -3 -10
-15 -10 -12 0 -18 5 -15 10 3 6 10 10 15 10 5 0 12 -4 15 -10z m613 -81 c-2
-6 -39 -25 -83 -41 -44 -17 -81 -35 -83 -40 -2 -4 -14 -8 -27 -8 -12 0 -28 -7
-35 -15 -7 -8 -23 -15 -36 -15 -12 0 -26 -5 -29 -10 -3 -6 -85 -49 -182 -98
-96 -48 -204 -102 -240 -120 -88 -45 -100 -36 -16 12 37 21 109 65 158 97 125
80 502 248 558 249 10 0 17 -5 15 -11z m1120 -64 c-6 -14 -19 -25 -29 -25 -13
0 -19 -9 -21 -32 -2 -23 -9 -34 -22 -36 -15 -3 -18 0 -13 17 7 26 6 26 -37 -3
-22 -14 -58 -26 -93 -30 -280 -33 -667 -152 -942 -291 -220 -110 -610 -356
-841 -531 -47 -35 -114 -86 -149 -112 -35 -26 -82 -63 -105 -83 -23 -20 -70
-55 -104 -78 -130 -87 -550 -501 -622 -613 -28 -45 -90 -108 -90 -93 0 4 25
42 57 84 283 380 725 818 1097 1088 39 28 96 69 126 91 266 192 764 445 1018
517 50 13 102 29 116 35 52 19 456 100 508 101 29 1 67 5 83 9 17 4 40 8 52 9
21 1 22 -1 11 -24z m-68 -145 c-20 -13 -50 -13 -50 0 0 6 15 10 33 10 24 0 28
-3 17 -10z m-105 -8 c-6 -5 -46 -14 -90 -21 -231 -36 -476 -104 -653 -181 -94
-40 -125 -49 -106 -30 20 20 351 141 469 172 176 45 405 82 380 60z m-1275
-62 c-20 -13 -33 -13 -25 0 3 6 14 10 23 10 15 0 15 -2 2 -10z m-49 -24 c-6
-7 -76 -52 -154 -99 -78 -47 -178 -110 -222 -141 -44 -30 -111 -77 -150 -103
-78 -53 -138 -101 -230 -185 -35 -31 -80 -67 -101 -81 -22 -14 -52 -39 -69
-57 -16 -18 -55 -49 -85 -69 -31 -20 -70 -48 -88 -61 -60 -44 -44 -11 29 62
41 40 86 82 101 93 15 11 85 70 155 132 157 138 190 165 228 189 17 10 68 46
115 80 117 84 198 131 266 154 31 11 62 25 69 30 7 6 37 24 66 40 59 33 89 40
70 16z m1144 -5 c-11 -11 -157 -42 -164 -36 -5 6 12 12 84 29 73 18 92 19 80
7z m-235 -61 c-42 -21 -121 -38 -105 -22 11 11 100 40 125 41 8 0 -1 -8 -20
-19z m480 11 c0 -16 -42 -41 -68 -41 -32 0 -26 32 8 41 37 10 60 10 60 0z
m-140 -32 c0 -16 -60 -37 -152 -53 -46 -8 -103 -22 -128 -31 -25 -9 -92 -27
-148 -41 -57 -13 -116 -31 -130 -38 -15 -7 -70 -25 -122 -40 -52 -15 -108 -35
-125 -46 -16 -10 -66 -32 -109 -50 -109 -43 -459 -214 -526 -257 -193 -123
-224 -142 -229 -138 -10 10 44 54 127 104 48 29 112 70 142 91 30 22 89 54
130 71 41 18 87 41 102 51 51 35 457 207 489 208 9 0 104 29 211 64 176 59
387 113 446 115 12 1 22 -4 22 -10z m1679 -88 c42 -26 110 -65 151 -86 41 -21
100 -55 130 -77 30 -22 131 -90 224 -151 309 -205 333 -222 390 -274 32 -29
62 -53 68 -53 5 0 51 -39 101 -87 51 -49 160 -152 242 -231 132 -125 210 -207
371 -390 23 -26 81 -103 129 -172 48 -69 114 -158 146 -198 32 -40 70 -94 85
-120 15 -26 49 -84 76 -129 27 -45 87 -157 134 -249 47 -93 96 -186 109 -208
13 -23 31 -68 40 -101 9 -33 27 -78 40 -100 40 -71 104 -231 124 -312 34 -133
43 -166 67 -238 51 -155 96 -360 106 -492 7 -73 8 -136 4 -140 -6 -6 -359 28
-491 48 -33 5 -178 13 -322 17 -144 4 -263 9 -266 12 -20 23 -96 169 -128 246
-22 53 -66 149 -98 213 -32 64 -62 127 -66 141 -4 14 -19 42 -32 62 -13 21
-36 70 -52 110 -16 40 -55 127 -87 193 -31 66 -75 167 -96 225 -77 206 -88
233 -107 264 -11 17 -45 94 -76 171 -57 142 -91 215 -274 585 -56 113 -101
208 -101 212 0 19 -118 304 -166 402 -30 60 -54 115 -54 121 0 7 -17 39 -39
72 -21 33 -44 77 -51 99 -7 21 -33 84 -58 139 -24 55 -59 138 -77 185 -18 47
-64 135 -102 196 -70 112 -87 144 -76 144 3 0 40 -22 82 -49z m-2853 30 c-3
-4 -56 -39 -118 -76 -271 -165 -470 -305 -644 -456 -269 -232 -483 -450 -716
-729 -97 -116 -338 -465 -392 -566 -14 -27 -30 -56 -35 -64 -4 -8 -14 -26 -21
-40 -7 -14 -39 -68 -70 -120 -131 -218 -184 -315 -206 -373 -12 -34 -40 -98
-62 -142 -21 -44 -42 -91 -46 -105 -4 -14 -23 -67 -42 -118 -19 -51 -34 -100
-34 -110 0 -9 -13 -45 -30 -78 -16 -34 -39 -101 -50 -150 -33 -143 -80 -275
-80 -225 0 8 -6 11 -17 7 -9 -4 -20 -1 -24 6 -6 9 -14 7 -32 -10 -27 -26 -37
-28 -37 -7 0 29 -30 3 -42 -37 l-12 -40 -18 36 c-19 38 -18 48 18 186 8 30 22
82 31 115 8 33 24 83 35 110 12 28 27 77 35 110 8 33 23 83 35 110 11 28 32
88 47 135 31 95 62 160 85 179 9 8 16 24 16 36 0 12 6 28 14 34 7 6 19 32 26
57 7 25 25 62 40 83 15 20 31 48 35 62 13 40 52 114 69 128 8 7 22 35 31 62 9
27 26 55 37 63 26 19 70 96 64 112 -3 7 6 19 18 28 27 17 103 122 136 186 21
42 71 112 96 135 6 5 21 25 33 43 12 17 32 37 44 44 l21 11 -19 -29 c-209
-319 -368 -587 -363 -612 2 -10 14 2 34 33 17 28 79 129 139 225 182 294 338
504 578 773 113 127 335 342 344 333 3 -2 -36 -44 -86 -92 -184 -174 -480
-527 -630 -748 -179 -266 -323 -510 -319 -541 2 -14 21 9 64 80 129 212 225
357 339 511 124 168 158 209 322 394 225 254 653 645 838 766 190 123 228 146
282 170 32 13 72 32 88 41 118 65 163 85 151 64z m344 -36 c0 -3 -42 -26 -92
-51 -51 -25 -130 -69 -175 -96 -45 -28 -87 -48 -94 -46 -16 5 67 58 216 135
110 57 145 71 145 58z m882 -43 c-10 -15 -36 -62 -57 -105 -22 -43 -45 -83
-52 -89 -7 -6 -13 -16 -13 -23 0 -7 -7 -18 -14 -25 -8 -6 -22 -35 -32 -63 -9
-29 -30 -80 -45 -114 -16 -34 -29 -68 -29 -76 0 -7 -46 -106 -102 -219 -119
-238 -126 -253 -171 -373 -54 -141 -119 -290 -184 -420 -119 -239 -263 -545
-263 -559 0 -4 -35 -85 -79 -179 -43 -95 -111 -253 -151 -352 -80 -200 -330
-717 -337 -697 -6 17 76 211 126 296 22 38 58 112 80 165 99 239 140 340 156
391 10 30 39 98 66 151 26 52 71 156 99 230 29 74 60 148 70 164 10 17 24 50
30 75 7 25 58 131 114 235 115 214 152 294 162 345 3 19 14 51 24 70 10 19 23
55 30 80 19 64 137 317 168 358 23 30 43 81 141 357 58 163 98 240 196 382 13
20 58 34 78 25 4 -2 -1 -15 -11 -30z m-152 -19 c0 -4 -18 -36 -39 -73 -21 -36
-56 -108 -76 -160 -21 -52 -55 -129 -75 -170 -21 -41 -41 -86 -45 -100 -4 -14
-51 -115 -105 -225 -54 -110 -115 -243 -135 -295 -67 -176 -119 -294 -206
-470 -48 -96 -94 -194 -103 -218 -9 -23 -26 -59 -39 -80 -24 -39 -78 -162
-120 -272 -13 -36 -38 -92 -55 -126 -17 -33 -59 -134 -95 -225 -68 -173 -175
-417 -257 -584 -27 -55 -77 -160 -112 -234 -35 -74 -92 -193 -128 -265 l-65
-131 -430 -6 c-273 -4 -506 -12 -640 -23 -141 -12 -260 -16 -363 -13 -106 4
-179 1 -239 -9 -47 -7 -89 -12 -93 -9 -4 2 4 59 16 127 13 68 26 168 30 223 4
70 16 137 41 225 71 249 186 563 230 628 10 15 34 66 54 114 21 48 51 107 68
132 17 24 31 51 31 58 0 7 9 27 21 43 11 17 45 73 76 125 31 52 76 118 100
147 24 28 62 82 85 120 44 74 139 194 201 258 22 22 51 58 65 80 30 48 221
245 277 287 22 16 80 68 129 115 114 110 261 226 367 292 46 29 105 69 132 90
26 20 84 59 130 86 45 26 118 69 162 95 110 65 287 154 365 183 36 13 97 40
136 60 39 20 111 47 160 61 49 14 149 46 222 71 176 61 322 92 322 68z m124
-139 c-47 -115 -137 -289 -142 -275 -2 7 3 28 11 49 8 20 20 63 27 95 6 31 15
57 20 57 13 0 70 86 70 105 0 21 43 82 47 68 2 -6 -13 -51 -33 -99z m-2164 37
c0 -11 -233 -213 -330 -286 -169 -127 -622 -598 -768 -797 -23 -31 -46 -59
-52 -63 -17 -10 -89 -112 -100 -141 -6 -14 -30 -53 -54 -87 -24 -34 -63 -96
-87 -137 -23 -41 -52 -87 -64 -102 -13 -15 -51 -80 -85 -145 -35 -65 -73 -134
-85 -153 -12 -19 -38 -75 -58 -125 -19 -49 -53 -126 -74 -170 -21 -44 -58
-141 -82 -215 -24 -74 -59 -169 -77 -210 -37 -87 -49 -123 -64 -205 -23 -127
-110 -364 -110 -300 1 50 73 339 111 444 11 31 32 96 45 144 13 48 35 114 48
145 12 31 33 90 46 130 12 40 38 98 57 130 19 31 50 94 69 140 18 46 42 95 52
110 10 15 49 86 87 157 37 72 79 145 93 164 14 19 41 62 61 96 20 35 68 105
107 156 39 52 74 105 77 119 7 26 98 144 172 220 24 25 66 76 94 114 68 94
353 389 421 436 30 21 89 73 130 115 41 42 98 93 125 112 28 20 64 49 80 64
24 23 204 148 213 149 1 0 2 -4 2 -9z m-623 -97 c-3 -3 -12 -4 -19 -1 -8 3 -5
6 6 6 11 1 17 -2 13 -5z m533 -134 c0 -5 -5 -10 -11 -10 -5 0 -7 5 -4 10 3 6
8 10 11 10 2 0 4 -4 4 -10z m-110 -94 c0 -2 -15 -19 -32 -38 -18 -19 -68 -71
-112 -116 -43 -45 -82 -82 -87 -82 -5 0 -15 -16 -23 -35 -8 -19 -22 -35 -30
-35 -7 0 -24 -15 -35 -32 -39 -60 -71 -102 -123 -158 -56 -59 -82 -92 -124
-155 -15 -22 -45 -62 -68 -90 -23 -27 -57 -76 -76 -107 -18 -31 -60 -88 -93
-125 -32 -37 -67 -84 -77 -104 -11 -20 -43 -73 -72 -117 -29 -45 -74 -116
-101 -159 -26 -43 -52 -85 -57 -93 -43 -67 -160 -292 -190 -365 -21 -49 -57
-133 -80 -185 -23 -52 -60 -149 -82 -215 -22 -66 -51 -145 -64 -175 -13 -30
-35 -107 -49 -170 -32 -145 -63 -240 -78 -241 -7 -1 -29 -2 -51 -3 l-38 -3 6
46 c7 55 100 380 120 419 7 15 16 47 20 71 4 24 19 73 35 110 15 36 37 98 49
136 12 39 37 97 57 129 20 33 49 92 64 130 16 39 59 127 96 196 38 69 79 147
92 173 14 27 42 72 64 100 21 29 39 59 39 68 0 18 59 98 73 98 4 1 -24 -59
-63 -133 -73 -139 -129 -281 -107 -273 6 2 37 53 67 113 218 432 666 1050 873
1205 39 29 108 91 153 136 68 70 104 97 104 79z m645 -136 c-10 -11 -25 -20
-34 -20 -10 0 -5 8 14 20 38 25 43 25 20 0z m-1476 -17 c0 -5 -4 -17 -9 -28
-8 -18 -9 -17 -9 8 -1 15 4 27 9 27 6 0 10 -3 9 -7z m771 -11 c0 -13 -109
-116 -115 -110 -4 3 18 31 47 62 50 53 68 66 68 48z m-890 -142 c0 -13 -28
-25 -38 -16 -3 4 0 11 8 16 20 13 30 12 30 0z m7570 -21 c0 -6 -4 -7 -10 -4
-5 3 -10 11 -10 16 0 6 5 7 10 4 6 -3 10 -11 10 -16z m-6530 -227 c0 -4 -32
-39 -72 -77 l-71 -70 63 78 c57 70 80 90 80 69z m3621 -198 c11 -26 17 -49 15
-51 -5 -6 -46 71 -46 87 0 22 12 8 31 -36z m-3791 11 c-7 -8 -17 -15 -23 -15
-5 0 -2 9 8 20 21 23 35 19 15 -5z m2625 -14 c-3 -16 -13 -35 -20 -41 -12 -10
-12 -3 1 35 18 50 30 55 19 6z m1611 -15 c18 -14 18 -15 1 -21 -9 -4 -24 -2
-32 5 -33 28 -5 42 31 16z m80 -93 c28 -32 72 -92 99 -133 26 -41 56 -87 66
-101 9 -14 31 -54 49 -90 41 -81 99 -183 160 -279 54 -85 105 -184 159 -309
21 -47 65 -134 99 -193 33 -59 78 -146 100 -195 22 -48 77 -167 122 -263 45
-96 126 -272 180 -390 54 -118 136 -289 182 -380 51 -100 105 -226 137 -320
30 -85 84 -220 122 -300 37 -80 83 -188 102 -240 51 -137 62 -162 113 -240 25
-39 53 -94 63 -123 22 -63 131 -327 173 -417 17 -36 72 -166 123 -290 51 -124
126 -298 167 -386 42 -89 84 -186 93 -215 10 -30 23 -61 30 -69 7 -8 36 -59
65 -113 45 -86 51 -102 41 -123 -15 -34 -44 -30 -85 10 -27 28 -43 62 -81 178
-54 161 -143 356 -187 407 -16 18 -34 45 -40 60 -42 105 -103 275 -115 320 -9
31 -36 85 -64 124 -27 39 -49 76 -49 82 0 7 -14 30 -31 51 -25 32 -29 44 -24
72 4 23 0 45 -13 70 -10 20 -24 58 -31 85 -19 76 -76 184 -130 242 -45 50 -54
68 -101 212 -37 110 -70 188 -110 258 -65 114 -111 228 -134 332 -21 96 -105
282 -167 366 -45 61 -102 187 -139 302 -15 48 -56 129 -103 208 -34 55 -117
254 -117 278 0 6 -13 37 -29 68 -17 31 -43 86 -60 123 -16 37 -43 87 -59 110
-40 59 -97 173 -121 244 -33 100 -110 254 -146 297 -45 53 -121 200 -135 263
-6 27 -40 99 -75 160 -55 95 -88 147 -173 264 -15 20 -9 40 11 40 7 0 35 -26
63 -57z m-4816 37 c0 -5 -5 -10 -11 -10 -5 0 -7 5 -4 10 3 6 8 10 11 10 2 0 4
-4 4 -10z m3046 -97 c-8 -15 -15 -22 -16 -15 0 17 20 55 27 49 2 -3 -2 -18
-11 -34z m-295 -4 c-5 -13 -10 -19 -10 -12 -1 15 10 45 15 40 3 -2 0 -15 -5
-28z m1909 11 c0 -5 -2 -10 -4 -10 -3 0 -8 5 -11 10 -3 6 -1 10 4 10 6 0 11
-4 11 -10z m0 -92 c0 -14 -18 -9 -24 8 -11 28 -6 39 9 20 8 -11 15 -23 15 -28z
m-1940 8 c0 -8 -4 -17 -9 -21 -12 -7 -24 12 -16 25 9 15 25 12 25 -4z m-2665
-71 c-15 -19 -30 -33 -33 -31 -3 3 8 22 23 41 15 20 29 34 32 31 3 -2 -7 -21
-22 -41z m4678 -7 c26 -29 47 -62 47 -74 0 -12 8 -32 19 -45 19 -25 33 -52
107 -199 23 -47 67 -127 98 -179 30 -52 61 -110 67 -130 6 -20 17 -43 25 -51
7 -8 25 -47 39 -87 15 -40 34 -78 43 -85 12 -10 14 -10 8 0 -4 7 -2 12 6 12
20 0 36 -43 24 -62 -7 -13 -3 -28 20 -65 16 -26 58 -109 93 -183 34 -74 76
-162 93 -195 16 -32 32 -70 35 -84 9 -53 37 -79 46 -43 2 11 7 5 14 -18 5 -19
6 -38 1 -41 -5 -3 7 -26 26 -51 23 -29 36 -58 38 -84 2 -31 7 -39 22 -39 11 0
21 -6 24 -13 2 -6 -1 -12 -7 -12 -20 0 -11 -35 22 -88 19 -28 36 -49 39 -46 3
2 3 -6 1 -20 -6 -29 13 -67 30 -60 20 7 101 -159 100 -204 -1 -26 12 -63 41
-122 46 -92 74 -162 102 -252 12 -42 22 -58 34 -58 24 0 62 -91 64 -155 1 -39
9 -61 35 -98 18 -27 46 -83 61 -125 45 -123 59 -152 74 -152 17 0 68 -117 61
-140 -4 -11 15 -53 50 -111 30 -51 55 -102 55 -112 0 -10 18 -61 40 -112 22
-52 52 -127 66 -166 14 -40 53 -126 85 -192 32 -66 59 -126 59 -134 0 -7 9
-32 20 -53 11 -22 32 -72 46 -111 14 -39 56 -133 94 -208 80 -161 107 -222
156 -356 20 -55 49 -129 65 -164 16 -35 27 -66 25 -68 -13 -13 -70 85 -101
171 -19 56 -42 114 -50 129 -8 16 -15 33 -15 38 0 21 -93 199 -129 247 -22 29
-43 61 -46 72 -4 11 -11 20 -16 20 -5 0 -9 8 -9 19 0 20 -38 126 -63 176 -8
17 -23 55 -32 85 -23 73 -52 135 -72 152 -21 17 -83 147 -83 174 0 12 -7 27
-15 34 -8 7 -15 24 -15 39 0 14 -16 57 -35 95 -19 39 -35 78 -35 88 0 33 -39
96 -78 128 -40 32 -82 96 -82 125 0 9 -9 28 -19 42 -11 13 -23 45 -26 71 -10
74 -40 152 -91 237 -77 130 -135 258 -143 316 -4 30 -14 68 -23 84 -8 17 -28
68 -43 115 -15 47 -34 89 -41 93 -37 21 -99 134 -180 327 -10 25 -35 74 -56
110 -20 36 -67 130 -103 210 -37 80 -71 152 -76 160 -5 8 -12 23 -15 33 -4 9
-10 17 -15 17 -5 0 -8 3 -7 8 3 9 -35 106 -61 157 -12 21 -21 48 -21 59 0 10
-29 79 -65 152 -37 74 -75 159 -85 190 -11 31 -24 62 -29 68 -5 6 -27 56 -50
111 -23 55 -60 127 -82 161 -22 35 -49 86 -60 115 -11 29 -29 63 -39 76 -10
13 -16 31 -13 39 5 14 -23 91 -48 134 -5 8 -27 49 -48 91 -22 41 -46 81 -55
88 -19 16 -21 31 -3 31 6 0 33 -23 60 -52z m-1005 -5 c11 -27 37 -95 57 -153
20 -58 47 -124 61 -147 13 -23 24 -49 24 -58 0 -8 15 -46 34 -83 18 -37 39
-85 46 -107 7 -22 23 -60 35 -85 13 -25 46 -112 75 -195 29 -82 72 -188 95
-235 23 -47 77 -168 120 -270 42 -102 97 -232 122 -290 104 -242 181 -426 187
-448 6 -16 3 -24 -10 -29 -10 -4 -124 -1 -254 6 -348 19 -1140 16 -1420 -4
-36 -3 -71 -1 -78 3 -15 10 -2 45 148 397 184 431 218 510 275 634 31 69 76
179 100 245 45 128 97 258 145 366 16 36 47 106 69 156 23 50 41 95 41 100 0
17 93 244 100 244 4 0 17 -21 28 -47z m833 -44 c15 -16 31 -38 34 -51 4 -13
23 -46 42 -75 19 -29 56 -102 83 -163 27 -61 57 -126 68 -143 10 -18 42 -69
69 -114 28 -45 74 -142 104 -215 29 -73 66 -154 81 -180 40 -64 224 -445 236
-488 6 -19 60 -139 121 -267 60 -127 117 -256 126 -285 8 -30 35 -86 59 -124
60 -95 153 -285 178 -364 53 -172 75 -228 157 -390 49 -96 96 -202 106 -235
25 -89 75 -191 138 -283 31 -45 63 -103 70 -130 26 -87 128 -336 168 -409 21
-39 73 -159 115 -265 42 -106 83 -204 92 -218 48 -76 132 -255 184 -395 33
-88 74 -184 90 -213 31 -54 31 -69 3 -58 -19 7 -97 171 -150 314 -21 57 -48
119 -61 138 -13 19 -24 37 -24 40 0 3 -23 42 -50 87 -28 45 -84 164 -125 265
-40 100 -94 219 -119 264 -25 46 -58 119 -75 163 -83 224 -138 341 -189 404
-37 45 -91 161 -147 317 -19 50 -59 136 -89 190 -65 115 -107 217 -141 347
-24 92 -91 235 -158 335 -19 30 -70 136 -112 235 -43 100 -99 223 -126 272
-26 50 -62 131 -80 180 -17 50 -48 124 -69 165 -20 41 -43 93 -50 115 -7 22
-28 66 -47 97 -38 64 -120 237 -148 313 -11 28 -25 59 -32 70 -7 11 -19 40
-28 64 -8 23 -35 75 -59 115 -47 74 -85 154 -141 291 -29 71 -151 301 -177
332 -5 7 -6 18 -2 24 5 8 14 3 28 -16 11 -16 33 -41 47 -56z m-1914 -16 c-21
-43 -22 -44 -25 -19 -4 30 23 80 38 71 5 -3 -1 -26 -13 -52z m1801 -15 c61
-81 84 -123 223 -417 27 -57 67 -129 88 -160 22 -31 62 -112 91 -181 63 -155
109 -253 165 -350 44 -77 152 -314 175 -385 7 -22 52 -119 99 -215 48 -96 101
-215 119 -265 18 -49 51 -121 74 -160 93 -158 158 -297 188 -401 35 -118 73
-210 136 -324 48 -87 94 -192 119 -270 37 -113 77 -197 122 -254 46 -58 91
-158 179 -397 19 -52 53 -124 75 -160 21 -35 66 -134 99 -219 33 -85 99 -234
147 -330 47 -96 93 -188 100 -205 8 -16 39 -91 68 -165 29 -74 63 -154 74
-177 24 -48 25 -53 11 -53 -22 0 -60 57 -91 135 -18 44 -50 118 -71 163 -21
46 -38 88 -38 94 0 22 -53 99 -60 88 -5 -9 -9 -9 -14 -1 -4 6 -2 11 3 11 18 0
12 26 -10 46 -24 21 -99 167 -119 229 -7 22 -21 54 -31 70 -9 17 -32 71 -50
120 -18 50 -48 114 -67 143 -19 29 -52 99 -74 155 -83 217 -149 358 -194 412
-38 47 -87 150 -146 305 -37 96 -114 254 -143 290 -7 8 -19 35 -28 60 -9 25
-27 72 -41 105 -14 33 -26 71 -26 85 0 45 -84 232 -140 315 -32 48 -104 196
-155 320 -20 50 -67 151 -104 225 -38 74 -76 160 -86 190 -10 30 -31 84 -48
120 -16 36 -44 101 -62 146 -17 44 -45 101 -62 125 -17 24 -34 55 -38 69 -4
13 -27 64 -51 114 -24 49 -44 97 -44 107 0 19 -68 162 -142 299 -26 47 -61
121 -78 165 -47 120 -140 316 -166 351 -26 35 -41 84 -26 84 5 0 28 -24 50
-52z m-4343 -15 c-33 -52 -67 -94 -72 -90 -8 8 17 49 50 85 38 39 45 41 22 5z
m2491 -84 c-3 -16 -17 -53 -31 -83 -14 -29 -25 -60 -25 -69 0 -9 -13 -31 -30
-50 -20 -23 -27 -40 -23 -55 3 -13 1 -22 -6 -22 -6 0 -11 -5 -11 -11 0 -6 -12
-34 -26 -63 -14 -28 -25 -52 -25 -53 0 -2 -6 -18 -13 -35 -8 -18 -25 -60 -38
-93 -12 -33 -35 -81 -50 -106 -15 -25 -31 -61 -34 -80 -4 -19 -15 -45 -24 -59
-10 -14 -21 -36 -25 -50 -4 -14 -22 -54 -40 -90 -18 -36 -36 -80 -40 -98 -4
-19 -27 -73 -51 -120 -24 -48 -44 -91 -44 -96 0 -35 -340 -700 -347 -679 -2 5
12 45 30 89 19 43 42 104 52 134 19 57 41 109 133 300 30 63 67 147 82 185 99
249 310 719 348 772 10 15 23 39 27 51 4 13 29 67 55 119 27 52 52 108 55 124
4 16 22 50 41 74 19 25 34 56 34 68 0 27 9 39 22 31 6 -4 7 -19 4 -35z m1421
-139 c70 -104 101 -169 122 -253 20 -79 112 -271 172 -357 25 -37 47 -87 65
-150 14 -52 46 -138 70 -191 24 -53 44 -100 44 -106 0 -5 12 -25 26 -44 37
-49 86 -151 119 -244 56 -162 89 -237 161 -372 70 -129 89 -178 114 -279 6
-23 57 -120 115 -215 83 -139 108 -188 121 -244 30 -131 105 -314 162 -398 45
-65 87 -155 111 -237 36 -124 109 -266 173 -338 49 -54 62 -77 83 -145 46
-152 101 -284 145 -348 48 -70 110 -205 136 -296 23 -79 97 -224 146 -286 52
-67 87 -138 133 -272 21 -60 58 -150 82 -199 55 -109 65 -136 53 -136 -5 0
-35 46 -66 103 -31 56 -67 118 -80 138 -12 20 -38 74 -57 120 -19 47 -68 138
-108 204 -89 147 -119 204 -119 224 0 9 -16 43 -36 76 -20 33 -43 77 -50 98
-8 21 -50 108 -94 194 -44 85 -80 161 -80 169 0 8 -11 37 -25 64 -14 27 -35
75 -46 106 -12 31 -41 84 -64 119 -52 75 -82 135 -187 365 -43 96 -104 219
-134 272 -33 58 -79 162 -114 260 -41 117 -92 229 -179 396 -66 128 -121 235
-121 237 0 13 -103 247 -135 306 -19 37 -46 101 -60 143 -14 42 -36 99 -50
127 -14 27 -37 82 -52 122 -14 40 -43 104 -64 142 -21 39 -77 169 -124 290
-48 121 -99 243 -115 271 -15 28 -43 89 -61 135 -17 46 -57 145 -87 219 -57
139 -112 285 -112 297 0 11 12 -5 67 -87z m131 -30 c47 -81 102 -215 121 -295
7 -32 13 -43 108 -197 40 -64 73 -135 94 -196 17 -54 42 -119 55 -147 12 -27
32 -72 44 -100 11 -27 38 -79 60 -115 41 -70 115 -243 161 -379 16 -46 37 -96
46 -110 46 -70 134 -256 158 -336 15 -49 44 -119 65 -155 22 -36 42 -74 46
-85 4 -11 20 -36 35 -55 36 -46 95 -166 104 -210 13 -64 75 -240 107 -303 17
-34 50 -90 73 -124 28 -40 54 -98 75 -165 54 -170 124 -315 181 -373 41 -42
54 -66 83 -150 75 -216 104 -284 163 -377 38 -61 67 -122 78 -163 10 -36 24
-70 31 -76 8 -6 14 -20 14 -29 0 -34 68 -180 119 -254 72 -106 133 -232 139
-285 6 -63 -3 -51 -88 114 -40 77 -83 154 -95 170 -13 17 -26 41 -30 55 -4 14
-16 37 -27 52 -10 15 -28 53 -38 84 -11 32 -34 78 -50 104 -17 26 -41 74 -54
106 -14 32 -38 84 -55 115 -17 31 -37 74 -45 96 -27 77 -139 309 -196 408 -32
55 -88 165 -124 245 -37 80 -100 213 -141 295 -41 83 -78 164 -81 180 -4 17
-20 49 -36 73 -16 23 -38 75 -49 115 -18 65 -175 401 -205 437 -7 8 -53 109
-104 224 -50 115 -101 228 -112 250 -12 23 -31 68 -44 101 -57 154 -129 324
-199 470 -42 88 -87 187 -100 220 -41 106 -75 188 -110 265 -19 41 -45 102
-59 135 -13 33 -45 110 -71 170 -26 61 -52 124 -57 140 -6 17 -21 53 -34 81
-26 55 -28 64 -16 64 4 0 31 -40 60 -90z m-4203 3 c-87 -130 -263 -456 -341
-630 -60 -136 -199 -524 -214 -599 -23 -118 -59 -208 -76 -191 -8 8 54 241 82
309 14 35 36 101 49 148 13 47 36 121 53 165 46 124 230 495 320 645 76 128
149 226 160 215 3 -2 -12 -31 -33 -62z m4464 -5 l11 -33 -20 24 c-11 13 -20
30 -20 38 0 23 17 6 29 -29z m-1448 -251 c-57 -159 -89 -232 -181 -422 -38
-77 -78 -164 -90 -194 -11 -30 -32 -73 -45 -96 -14 -23 -33 -66 -44 -96 -26
-73 -89 -206 -101 -214 -6 -3 -10 -14 -10 -23 0 -21 -17 -48 -24 -41 -9 9 27
104 92 241 33 69 70 159 82 200 12 40 70 168 129 284 60 116 116 233 126 260
10 27 26 60 35 74 10 14 25 50 35 80 20 62 35 94 41 88 2 -3 -18 -66 -45 -141z
m1458 101 c10 -29 10 -31 -3 -18 -17 19 -33 65 -18 56 5 -3 15 -21 21 -38z
m41 32 c0 -5 -4 -10 -10 -10 -5 0 -10 5 -10 10 0 6 5 10 10 10 6 0 10 -4 10
-10z m132 -411 c84 -171 154 -304 156 -296 2 8 -10 42 -26 74 -16 32 -33 69
-37 83 -4 14 -18 48 -31 77 -13 28 -24 56 -24 62 0 5 -17 42 -37 80 -20 39
-33 74 -29 78 20 20 109 -137 136 -237 7 -24 27 -75 46 -112 19 -38 44 -91 55
-120 11 -28 33 -69 49 -92 32 -44 112 -225 165 -371 18 -49 67 -155 108 -235
41 -80 89 -185 107 -235 17 -49 67 -152 112 -229 93 -160 133 -245 144 -301
14 -77 87 -261 137 -344 49 -82 102 -197 126 -276 43 -137 87 -228 142 -291
22 -26 47 -61 54 -78 27 -62 135 -344 135 -352 0 -5 23 -47 50 -94 76 -129
140 -300 112 -300 -9 0 -62 118 -82 182 -6 20 -20 48 -31 62 -20 25 -79 150
-94 196 -19 61 -140 318 -164 350 -43 55 -67 98 -105 192 -20 48 -47 108 -61
134 -14 26 -25 53 -25 59 0 7 -22 55 -49 106 -27 52 -58 112 -69 134 -52 100
-102 216 -97 225 3 5 -5 38 -19 72 -13 35 -29 79 -35 98 -6 19 -27 62 -48 95
-54 89 -162 302 -185 365 -11 30 -27 62 -34 71 -8 8 -14 22 -14 29 0 13 -46
114 -97 212 -13 26 -37 82 -53 125 -58 157 -149 366 -177 405 -15 23 -34 50
-41 62 -12 19 -13 18 -6 -14 8 -43 43 -129 97 -235 52 -104 89 -203 78 -209
-10 -7 -108 188 -146 287 -14 37 -32 78 -39 90 -8 12 -25 49 -37 82 -12 33
-43 101 -70 150 -72 136 -221 495 -205 495 2 0 74 -140 158 -311z m-51 234
c13 -24 8 -39 -9 -29 -6 3 -17 27 -26 54 l-16 47 20 -25 c10 -14 25 -35 31
-47z m-5874 -115 c-3 -8 -6 -5 -6 6 -1 11 2 17 5 13 3 -3 4 -12 1 -19z m6600
-230 c-3 -8 -6 -5 -6 6 -1 11 2 17 5 13 3 -3 4 -12 1 -19z m-6681 -25 c-11
-11 -19 6 -11 24 8 17 8 17 12 0 3 -10 2 -21 -1 -24z m218 -1198 c7 -29 1 -45
-18 -45 -16 0 -27 35 -19 56 8 23 30 16 37 -11z m2085 -6 c89 0 119 -3 102
-10 -28 -11 -606 -25 -646 -15 -57 14 -7 25 130 29 77 2 173 2 214 0 41 -1
131 -3 200 -4z m-2255 -48 c3 -5 -1 -11 -9 -15 -15 -6 -29 7 -18 18 9 9 21 8
27 -3z m-126 -13 c-5 -14 -61 -23 -86 -13 -14 5 -14 7 -2 15 23 15 92 12 88
-2z m8102 -8 c0 -5 -11 -10 -24 -10 -14 0 -28 5 -31 10 -4 6 7 10 24 10 17 0
31 -4 31 -10z m-6934 -15 c-10 -8 -23 -12 -29 -8 -11 7 12 23 33 23 12 -1 11
-4 -4 -15z m164 5 c11 -7 9 -11 -13 -19 -41 -16 -104 -14 -110 3 -4 11 4 16
31 19 68 7 77 7 92 -3z m6905 0 c16 -7 11 -9 -22 -9 -23 -1 -45 4 -48 9 -8 12
42 12 70 0z m-9080 -40 c14 -6 -2 -9 -50 -9 -49 -1 -65 2 -55 9 18 12 78 12
105 0z m5995 -129 c17 -5 21 -9 12 -15 -12 -7 -423 11 -431 20 -7 7 393 2 419
-5z m4904 -7 c9 -23 8 -24 -14 -24 -11 0 -20 2 -20 4 0 12 13 36 20 36 4 0 11
-7 14 -16z m-8279 -13 c19 -8 19 -8 -2 -20 -21 -11 -148 -23 -384 -37 -85 -4
-118 -3 -124 6 -11 18 -1 22 57 22 29 0 118 6 198 14 80 8 163 15 185 17 22 2
42 4 45 5 3 0 14 -3 25 -7z m4248 -1 c58 0 97 -4 97 -10 0 -11 -256 -14 -309
-4 -57 12 -21 27 48 20 36 -3 110 -6 164 -6z m217 -10 c0 -5 -18 -10 -40 -10
-22 0 -40 5 -40 10 0 6 18 10 40 10 22 0 40 -4 40 -10z m120 0 c0 -5 -4 -10
-10 -10 -5 0 -10 5 -10 10 0 6 5 10 10 10 6 0 10 -4 10 -10z m-3920 -94 c0 -8
-5 -18 -11 -22 -13 -7 -439 -7 -447 1 -3 3 -3 8 1 11 9 9 183 21 330 23 105 1
127 -2 127 -13z m5785 -61 c88 -8 194 -21 235 -29 41 -8 96 -17 122 -21 26 -3
51 -11 54 -17 8 -13 -120 -4 -266 17 -52 8 -159 21 -237 30 -78 8 -146 15
-150 16 -13 2 40 17 62 18 11 0 92 -6 180 -14z m-9152 -22 c-7 -2 -21 -2 -30
0 -10 3 -4 5 12 5 17 0 24 -2 18 -5z m9697 -53 c0 -12 -17 -12 -45 0 -17 7
-15 9 13 9 17 1 32 -3 32 -9z m2139 -162 c67 -11 104 -28 62 -28 -12 0 -20 -4
-17 -8 2 -4 -28 -4 -67 0 -40 4 -84 7 -99 7 -39 1 -35 21 5 22 27 0 29 2 12 9
-17 7 -16 9 9 9 16 1 58 -4 95 -11z m-11809 -18 c0 -5 -12 -10 -27 -9 -25 0
-26 1 -8 9 27 12 35 12 35 0z m2695 -49 c-15 -15 -653 -69 -698 -60 -40 9 -14
24 60 36 147 24 657 43 638 24z m6585 -31 c19 -5 123 -14 230 -20 197 -12 247
-19 243 -36 -4 -16 -54 -17 -188 -4 -71 7 -159 14 -195 15 -249 9 -340 23
-340 56 0 11 195 3 250 -11z m-3965 -6 c99 -1 103 -6 10 -13 -105 -8 -487 2
-455 12 32 9 272 15 330 8 25 -3 77 -6 115 -7z m4787 -79 c72 -16 98 -28 81
-38 -13 -8 -183 33 -183 44 0 12 18 11 102 -6z m262 -41 c30 -12 16 -24 -28
-24 -43 0 -63 10 -49 24 8 8 56 8 77 0z m-7905 -13 c19 -12 -47 -33 -91 -29
-69 6 -509 -35 -554 -52 -14 -6 -32 -10 -40 -10 -17 0 -19 44 -1 57 11 10 160
19 461 29 72 3 132 7 135 9 8 8 75 5 90 -4z m8225 -27 c26 -10 18 -24 -13 -24
-30 0 -46 12 -34 24 8 8 27 8 47 0z m1784 -91 c-10 -2 -28 -2 -40 0 -13 2 -5
4 17 4 22 1 32 -1 23 -4z m-11778 -118 c0 -4 -7 -20 -16 -36 -12 -24 -21 -30
-42 -27 -20 2 -28 9 -30 27 -2 13 2 28 10 32 14 10 78 12 78 4z m167 -1 c-3
-3 -12 -4 -19 -1 -8 3 -5 6 6 6 11 1 17 -2 13 -5z m1553 -4 c-20 -13 -57 -13
-65 0 -4 6 11 10 37 10 31 0 39 -3 28 -10z m-205 -10 c-3 -5 -30 -10 -58 -10
-37 0 -48 3 -37 10 20 13 103 13 95 0z m7205 -11 c10 -5 -6 -8 -45 -9 -67 0
-135 9 -135 19 0 9 162 0 180 -10z m-7845 -40 c6 -32 3 -45 -11 -60 -18 -20
-18 -21 3 -37 16 -13 30 -53 59 -167 54 -220 82 -321 114 -405 15 -41 33 -100
39 -130 7 -30 29 -90 50 -135 22 -44 71 -146 109 -228 39 -81 86 -173 105
-205 19 -31 54 -94 77 -140 l42 -83 -47 -103 -47 -103 -22 21 c-33 30 -110
145 -126 186 -7 19 -22 44 -32 56 -10 11 -18 28 -18 38 0 9 -11 34 -25 54 -14
20 -25 42 -25 49 0 7 -13 34 -30 60 -16 26 -30 53 -30 60 0 7 -13 37 -29 66
-16 28 -32 63 -36 77 -4 14 -18 39 -31 57 -14 18 -28 52 -33 77 -4 24 -18 62
-31 83 -13 21 -26 52 -31 68 -20 78 -90 296 -110 345 -12 30 -23 73 -23 95 -1
22 -5 46 -9 53 -5 6 -6 16 -2 22 3 5 -1 26 -10 46 -8 20 -19 60 -24 88 -5 28
-14 69 -19 91 -34 138 -29 145 103 145 l93 0 7 -41z m300 21 c9 -14 -55 -23
-70 -10 -8 7 -13 15 -10 19 5 9 74 1 80 -9z m7720 10 c4 -6 -12 -10 -39 -10
-25 0 -46 5 -46 10 0 6 18 10 39 10 22 0 43 -4 46 -10z m-5564 -173 c-44 -89
-81 -168 -81 -175 0 -6 -9 -26 -20 -44 -11 -18 -20 -40 -20 -49 0 -9 -7 -22
-15 -29 -8 -7 -13 -16 -10 -20 3 -4 -6 -19 -19 -33 -15 -16 -22 -34 -19 -49 3
-15 -17 -66 -55 -143 -33 -66 -74 -162 -91 -212 -18 -51 -68 -179 -112 -285
-45 -106 -89 -217 -100 -246 -10 -28 -49 -121 -88 -205 -38 -83 -83 -186 -99
-227 -50 -131 -191 -340 -229 -340 -28 0 -5 59 77 202 53 91 84 155 90 189 6
28 23 77 39 108 58 110 90 177 111 231 13 30 44 100 71 155 27 55 49 104 49
109 0 4 19 49 41 100 23 50 54 127 69 171 38 110 430 902 471 951 33 40 14
-12 -60 -159z m-2743 144 c3 -8 -1 -12 -9 -9 -7 2 -15 10 -17 17 -3 8 1 12 9
9 7 -2 15 -10 17 -17z m400 -12 c-16 -10 -33 5 -23 21 5 8 11 8 21 -1 12 -10
12 -14 2 -20z m5892 21 c0 -5 -22 -10 -50 -10 -27 0 -50 5 -50 10 0 6 23 10
50 10 28 0 50 -4 50 -10z m-3070 -10 c0 -6 -23 -59 -51 -118 -28 -59 -59 -130
-69 -157 -24 -69 -62 -142 -67 -129 -2 6 10 44 26 85 42 105 117 283 131 308
11 22 30 28 30 11z m5544 -1 c86 -13 136 -38 76 -39 -45 0 -149 25 -163 39
-14 14 -8 14 87 0z m-9342 -64 c4 -22 19 -111 33 -198 25 -155 41 -224 97
-405 15 -51 28 -101 28 -112 0 -11 6 -20 14 -20 9 0 13 -13 13 -39 0 -32 43
-179 73 -246 4 -11 11 -36 14 -55 4 -19 15 -43 25 -55 10 -11 24 -41 31 -67 7
-26 19 -53 26 -59 8 -6 19 -30 25 -53 6 -22 22 -60 36 -84 22 -36 27 -41 41
-30 14 12 15 8 9 -26 -3 -22 -2 -45 3 -51 5 -6 39 -69 75 -140 81 -160 114
-217 143 -248 12 -13 22 -31 22 -41 0 -9 46 -83 102 -163 72 -103 111 -150
131 -157 21 -8 27 -16 23 -30 -6 -23 11 -59 25 -51 5 4 9 0 9 -8 0 -8 7 -20
15 -27 20 -16 19 -28 -5 -68 -25 -41 -33 -36 -92 53 -23 33 -55 76 -73 95 -53
56 -234 336 -293 450 -29 58 -59 112 -66 120 -16 18 -106 190 -106 202 0 4
-27 63 -61 130 -33 68 -78 170 -99 228 -21 58 -59 161 -84 230 -25 69 -46 133
-46 144 0 10 -14 60 -32 110 -17 50 -39 127 -48 171 -10 44 -25 109 -33 145
-22 87 -55 262 -63 332 -7 61 -1 68 56 65 21 -2 26 -9 32 -42z m2204 34 c3 -6
-108 -241 -249 -523 -141 -281 -272 -545 -291 -586 -44 -92 -79 -157 -92 -170
-16 -16 -34 12 -118 190 -104 220 -116 246 -116 254 0 3 -18 46 -40 94 -22 49
-48 124 -59 168 -11 43 -35 124 -55 179 -37 105 -74 301 -59 316 8 8 125 20
393 39 80 6 244 19 365 29 274 23 312 24 321 10z m559 -48 c-23 -47 -45 -72
-45 -54 0 12 58 103 65 103 3 0 -6 -22 -20 -49z m-2507 -61 c27 -153 125 -540
172 -680 26 -80 55 -173 64 -208 9 -34 43 -116 75 -182 33 -66 79 -162 101
-215 22 -52 65 -136 96 -186 30 -50 71 -123 90 -162 20 -39 53 -94 73 -121 21
-28 55 -82 76 -119 20 -38 54 -89 74 -115 75 -95 75 -95 51 -141 -11 -23 -26
-41 -33 -40 -6 0 -26 21 -44 47 -135 198 -247 371 -269 415 -14 28 -32 59 -40
67 -7 8 -28 44 -46 80 -45 86 -67 128 -90 170 -10 19 -29 58 -40 85 -12 28
-38 79 -56 115 -19 36 -43 88 -52 115 -10 28 -32 86 -48 130 -16 44 -38 105
-47 135 -10 30 -22 59 -26 65 -5 5 -9 18 -9 30 0 11 -7 29 -15 39 -8 11 -15
33 -15 49 0 17 -15 78 -34 136 -18 58 -41 149 -50 201 -10 52 -26 122 -36 155
-10 33 -22 87 -25 120 -4 33 -9 68 -12 78 -4 16 1 18 49 15 l53 -3 13 -75z
m7208 34 c50 -85 255 -496 251 -500 -2 -2 -19 24 -37 58 -19 35 -50 90 -70
123 -29 48 -172 320 -189 359 -2 5 2 7 10 4 7 -2 23 -22 35 -44z m-7078 -16
c6 -29 15 -84 21 -123 7 -38 23 -106 36 -150 13 -44 31 -114 40 -156 8 -42 33
-130 56 -195 22 -66 51 -159 65 -209 14 -49 55 -151 91 -225 36 -74 79 -163
94 -198 16 -34 46 -93 67 -130 22 -37 60 -107 85 -157 25 -49 79 -140 119
-202 40 -62 85 -132 101 -155 15 -24 34 -52 42 -63 10 -14 11 -25 4 -35 -8
-12 -15 -9 -40 20 -81 93 -293 444 -374 620 -11 24 -53 111 -92 193 -40 81
-73 155 -73 164 0 8 -17 52 -37 97 -48 106 -166 484 -192 616 -6 30 -22 107
-36 170 -31 143 -32 170 -6 170 16 0 22 -11 29 -52z m206 30 c3 -13 10 -50 16
-83 6 -33 22 -103 35 -155 13 -52 38 -151 55 -220 18 -69 44 -159 60 -200 15
-41 34 -100 41 -130 31 -138 339 -745 474 -934 19 -26 35 -59 35 -72 0 -33
-30 -106 -43 -101 -16 5 -191 280 -233 365 -21 43 -52 100 -69 127 -18 28 -54
100 -80 160 -26 61 -63 141 -82 179 -19 38 -41 88 -48 110 -7 23 -27 74 -44
114 -17 40 -49 138 -72 218 -22 80 -49 165 -59 187 -10 23 -22 67 -26 97 -4
30 -11 66 -16 80 -13 34 -48 219 -48 252 0 27 2 28 50 28 43 0 50 -3 54 -22z
m2000 7 c-4 -8 -8 -15 -10 -15 -2 0 -4 7 -4 15 0 8 4 15 10 15 5 0 7 -7 4 -15z
m4456 -12 c31 -67 120 -297 116 -301 -8 -7 -35 43 -54 99 -11 29 -38 91 -61
136 -46 93 -46 93 -28 93 8 0 20 -12 27 -27z m1934 -1 c14 -8 -3 -117 -35
-220 -17 -53 -34 -120 -39 -147 -9 -53 -40 -135 -51 -135 -13 0 -30 31 -148
273 l-120 249 192 -7 c106 -4 196 -10 201 -13z m-744 -54 c0 -17 -18 -6 -28
17 -19 41 -14 53 8 20 11 -16 20 -33 20 -37z m-8195 42 c3 -5 1 -10 -4 -10 -6
0 -11 5 -11 10 0 6 2 10 4 10 3 0 8 -4 11 -10z m9071 -96 c-68 -276 -93 -351
-81 -244 7 61 70 324 82 343 15 23 14 -39 -1 -99z m-6546 75 c-7 -11 -14 -19
-16 -16 -7 7 7 37 17 37 6 0 5 -9 -1 -21z m-1509 -220 c30 -123 65 -245 76
-271 22 -49 59 -196 51 -204 -9 -9 -86 201 -118 321 -68 251 -97 370 -93 378
15 27 34 -24 84 -224z m2455 173 c-23 -45 -46 -74 -46 -57 0 8 41 88 53 103
21 26 17 2 -7 -46z m5857 29 c68 -11 75 -21 54 -80 -9 -27 -17 -62 -17 -79 0
-16 -7 -47 -16 -67 -8 -21 -22 -71 -30 -112 -7 -40 -20 -86 -28 -102 -9 -16
-20 -56 -25 -90 -6 -34 -19 -74 -30 -90 -12 -16 -21 -37 -21 -47 0 -20 -33
-111 -56 -156 -8 -14 -14 -33 -14 -41 0 -8 -15 -47 -33 -86 l-33 -72 -58 131
c-53 120 -57 134 -46 158 7 15 25 65 41 112 15 47 34 105 43 130 31 93 90 329
100 400 4 25 11 60 17 79 11 33 12 33 58 26 25 -4 67 -10 94 -14z m-6661 -23
c-7 -7 -12 -8 -12 -2 0 14 12 26 19 19 2 -3 -1 -11 -7 -17z m48 -5 c0 -30 -94
-224 -147 -305 -28 -43 -63 -108 -76 -145 -14 -38 -42 -113 -63 -168 -20 -55
-56 -140 -81 -188 -24 -48 -68 -149 -99 -225 -30 -75 -80 -181 -110 -234 -33
-58 -61 -125 -73 -170 -21 -86 -35 -115 -109 -225 -49 -76 -75 -96 -94 -77 -6
6 25 86 84 214 20 41 42 100 51 130 9 30 31 78 48 105 18 28 40 71 50 96 10
25 65 145 122 265 58 120 130 280 162 354 32 74 64 144 71 155 8 11 14 26 14
34 0 13 45 87 61 101 13 12 17 39 6 44 -8 3 -5 11 8 23 11 10 19 26 17 36 -5
25 26 70 43 63 8 -3 17 -1 20 4 4 6 -1 10 -9 10 -14 0 -14 4 -3 32 16 40 42
53 27 13 -12 -33 -12 -35 0 -35 6 0 22 25 37 55 28 56 43 69 43 38z m6854 -13
c5 -5 -5 -61 -23 -132 -17 -68 -36 -143 -42 -168 -6 -25 -20 -75 -31 -112 -11
-36 -22 -84 -24 -105 -2 -21 -19 -73 -39 -116 -19 -43 -35 -84 -35 -92 0 -16
-48 -143 -90 -235 -16 -36 -34 -83 -41 -105 -6 -22 -22 -59 -34 -83 l-23 -43
-26 57 c-14 31 -26 63 -26 70 0 8 17 49 39 92 21 42 61 147 89 233 27 85 56
169 65 185 16 30 84 298 112 444 27 132 28 134 78 126 23 -4 46 -11 51 -16z
m146 -47 c-1 -21 -9 -72 -20 -113 -39 -153 -53 -207 -76 -285 -12 -44 -25 -98
-29 -120 -4 -22 -16 -60 -27 -85 -11 -25 -29 -72 -39 -105 -36 -111 -149 -389
-197 -485 -44 -87 -72 -122 -72 -87 0 18 118 287 135 307 7 8 21 42 31 75 29
100 91 277 113 326 11 26 28 77 37 115 8 38 25 107 35 154 11 47 29 126 39
175 28 131 39 165 55 165 11 0 15 -11 15 -37z m189 11 c7 -7 -29 -206 -45
-254 -9 -25 -20 -71 -24 -103 -4 -31 -12 -63 -17 -70 -11 -14 -43 -125 -43
-150 0 -10 -18 -63 -40 -118 -22 -56 -40 -113 -40 -128 0 -15 -18 -64 -40
-110 -22 -45 -40 -88 -40 -96 0 -7 -7 -15 -15 -19 -8 -3 -15 -12 -15 -21 0
-20 -40 -137 -51 -150 -5 -5 -9 -17 -9 -28 0 -10 -20 -46 -44 -80 -48 -68 -86
-139 -86 -160 0 -7 -6 -22 -14 -33 -14 -18 -16 -16 -41 39 l-27 57 21 33 c12
17 42 75 67 127 25 52 69 145 99 205 29 61 72 173 95 250 22 77 52 164 66 194
29 65 74 232 74 278 0 18 9 56 19 85 11 29 22 79 26 111 4 32 12 73 19 90 7
18 16 40 20 51 5 15 12 17 44 11 20 -4 39 -9 41 -11z m-7443 -29 c-4 -14 -11
-25 -16 -25 -5 0 -5 13 2 31 12 35 23 31 14 -6z m7682 -12 c4 -24 -41 -235
-62 -298 -8 -22 -17 -61 -20 -86 -3 -26 -19 -82 -36 -125 -19 -46 -30 -89 -27
-103 3 -16 -9 -57 -34 -112 -21 -48 -42 -102 -46 -120 -3 -19 -17 -56 -30 -84
-12 -27 -23 -57 -23 -65 0 -8 -17 -49 -39 -90 -21 -41 -42 -91 -46 -110 -4
-19 -32 -82 -62 -140 -122 -233 -140 -268 -176 -332 -49 -86 -60 -96 -81 -66
-21 30 -20 74 3 106 10 15 38 65 61 112 23 47 55 103 70 125 47 69 117 218
130 278 7 31 19 62 26 68 7 6 23 41 35 77 12 37 28 76 35 87 7 11 19 49 28 85
9 35 28 84 41 108 14 25 25 59 26 76 0 17 8 60 19 96 10 36 30 106 44 155 14
50 37 151 52 225 33 174 27 162 71 158 30 -2 39 -7 41 -25z m-6773 -99 c-29
-38 -44 -40 -25 -2 19 36 44 61 48 48 2 -6 -8 -27 -23 -46z m7628 49 c-7 -2
-21 -2 -30 0 -10 3 -4 5 12 5 17 0 24 -2 18 -5z m-8263 -62 c-10 -27 -32 -68
-48 -92 -85 -127 -102 -160 -121 -233 -29 -105 -86 -253 -116 -297 -14 -19
-25 -44 -25 -55 0 -11 -6 -28 -14 -39 -7 -11 -37 -78 -66 -150 -58 -143 -81
-192 -133 -277 -19 -31 -39 -82 -45 -113 -20 -97 -166 -355 -188 -332 -11 11
32 142 70 212 18 33 39 78 46 100 7 22 41 96 75 165 34 69 74 157 89 196 14
38 42 95 61 125 20 29 49 90 66 134 35 94 81 200 116 270 14 28 45 91 70 140
56 113 164 295 175 295 4 0 -1 -22 -12 -49z m545 -8 c-5 -10 -7 -21 -7 -25 3
-13 -39 -88 -49 -88 -13 0 -11 14 8 62 17 44 43 82 51 73 2 -2 1 -12 -3 -22z
m-3228 -25 c-3 -8 -6 -5 -6 6 -1 11 2 17 5 13 3 -3 4 -12 1 -19z m3367 -65
c-7 -31 -21 -50 -30 -41 -6 6 23 68 31 68 3 0 2 -12 -1 -27z m-277 -240 c-46
-103 -97 -226 -112 -273 -16 -47 -41 -114 -58 -150 -16 -36 -37 -87 -47 -115
-26 -75 -131 -325 -193 -460 -30 -66 -62 -144 -71 -173 -24 -72 -168 -309
-213 -352 -36 -33 -38 -34 -41 -13 -2 13 32 81 87 175 60 103 95 174 106 218
9 36 38 106 65 155 27 50 66 135 88 190 22 55 55 134 75 175 68 144 106 236
142 340 38 108 98 239 184 395 28 50 50 92 50 95 1 2 6 -1 12 -7 8 -8 -11 -61
-74 -200z m-3038 147 c0 -8 -6 -4 -13 10 -8 14 -12 29 -8 34 6 10 20 -20 21
-44z m3282 12 c-26 -51 -173 -421 -196 -492 -10 -30 -34 -98 -55 -150 -79
-199 -90 -231 -90 -249 0 -10 -8 -29 -18 -42 -27 -34 -104 -236 -110 -286 -3
-25 -9 -40 -16 -37 -10 4 -48 -66 -61 -112 -3 -12 -35 -76 -71 -142 -36 -67
-75 -152 -88 -189 -37 -106 -96 -246 -114 -265 -11 -14 -18 -15 -28 -7 -12 9
-11 18 6 48 28 52 61 133 56 138 -2 3 -15 -1 -27 -8 -19 -9 -24 -9 -27 1 -3 8
-12 -1 -23 -21 -10 -19 -18 -28 -19 -21 0 21 30 74 70 122 37 45 99 142 152
236 31 56 47 137 30 148 -14 8 5 56 22 56 15 1 116 163 116 186 0 34 94 264
108 264 4 0 16 24 26 53 10 28 31 78 47 110 16 33 41 104 55 158 26 103 114
288 154 324 11 10 20 25 20 34 0 9 9 31 20 49 11 18 20 36 20 41 0 21 32 81
40 76 6 -4 6 -13 1 -23z m5585 -43 c-7 -43 -75 -185 -76 -158 0 9 9 48 21 85
32 105 68 153 55 73z m-6186 -216 c-13 -37 -28 -75 -35 -83 -7 -8 -15 -31 -19
-51 -3 -19 -39 -109 -79 -200 -40 -90 -84 -193 -96 -229 -13 -36 -51 -119 -85
-186 -35 -66 -72 -151 -84 -190 -12 -38 -38 -96 -58 -129 -20 -33 -50 -83 -67
-112 -17 -29 -34 -50 -38 -47 -13 8 8 62 60 152 28 49 58 116 66 150 9 34 33
90 54 124 21 35 48 90 60 123 12 33 31 75 42 93 10 18 19 40 19 49 0 9 15 44
34 77 42 76 156 328 156 345 0 6 9 29 19 49 11 20 29 61 42 89 31 72 36 59 9
-24z m-754 -249 c-84 -226 -125 -324 -185 -439 -22 -44 -41 -86 -41 -94 0 -20
-42 -101 -52 -101 -12 0 -48 62 -48 84 0 11 26 60 59 110 70 109 142 250 171
336 39 114 158 335 168 310 1 -4 -31 -97 -72 -206z m-809 101 c22 -44 52 -112
67 -152 15 -40 49 -107 75 -150 62 -103 104 -194 93 -205 -15 -15 -302 552
-302 597 0 31 21 2 67 -90z m6739 -120 c27 -63 28 -65 14 -65 -13 0 -49 77
-50 103 0 30 10 19 36 -38z m-5381 -41 c-24 -37 -29 -23 -8 21 12 26 19 32 21
21 2 -9 -4 -28 -13 -42z m5475 -130 c12 -19 20 -37 17 -40 -7 -7 -47 46 -47
62 0 22 7 17 30 -22z m154 -39 c3 -8 1 -15 -3 -15 -5 0 -11 7 -15 15 -3 8 -1
15 3 15 5 0 11 -7 15 -15z m-5296 -227 c-2 -6 -10 -14 -16 -16 -7 -2 -10 2 -6
12 7 18 28 22 22 4z m6076 -84 c10 -26 7 -34 -13 -34 -23 0 -35 15 -27 35 7
20 32 19 40 -1z m-37 -76 c6 -24 14 -52 18 -63 l8 -20 -22 20 c-28 25 -43 61
-36 86 10 30 21 22 32 -23z m-6087 13 c0 -12 -41 -63 -47 -57 -7 7 26 66 37
66 6 0 10 -4 10 -9z m5148 -86 c-3 -3 -9 2 -12 12 -6 14 -5 15 5 6 7 -7 10
-15 7 -18z m-6334 -23 c27 -39 31 -52 19 -52 -11 0 -53 63 -53 78 0 19 5 15
34 -26z m6392 -99 c-7 -8 -34 39 -41 72 -5 24 -1 21 20 -18 15 -27 24 -51 21
-54z m-6449 -15 c31 -29 29 -35 -12 -34 -38 1 -38 1 -29 34 8 27 12 27 41 0z
m6280 -80 c-3 -8 -6 -5 -6 6 -1 11 2 17 5 13 3 -3 4 -12 1 -19z m-6306 -61
c-18 -18 -23 -1 -9 29 13 28 13 28 16 5 2 -13 -1 -28 -7 -34z m1069 -4 c0 -14
-19 -38 -25 -32 -8 8 5 39 16 39 5 0 9 -3 9 -7z m5294 -39 c3 -9 6 -23 6 -32
-1 -15 -3 -14 -15 2 -17 22 -20 46 -6 46 5 0 12 -7 15 -16z m196 -244 c11 -22
18 -40 15 -40 -6 0 -45 62 -45 73 0 16 11 5 30 -33z m-272 -59 c-52 -58 -203
-201 -212 -201 -21 0 8 35 112 136 118 114 181 155 100 65z m241 -57 c35 -75
41 -97 32 -107 -10 -9 -16 -7 -29 12 -29 40 -80 164 -75 178 12 30 31 8 72
-83z m-119 -91 c18 -42 37 -85 44 -96 12 -21 18 -15 -152 -155 -51 -42 -117
-90 -145 -106 l-52 -30 29 40 c16 21 47 58 68 81 61 68 49 86 -19 28 -55 -47
-77 -45 -30 3 39 40 51 92 22 92 -8 0 -49 -28 -90 -62 -42 -33 -77 -59 -79
-57 -2 2 37 43 88 91 50 47 129 123 176 167 47 44 90 81 97 81 6 0 26 -35 43
-77z m226 -115 c16 -31 12 -64 -6 -53 -17 11 -42 66 -36 82 8 19 22 9 42 -29z
m-5726 7 c0 -19 -13 -25 -29 -15 -19 11 -6 41 14 34 8 -3 15 -12 15 -19z m-64
-90 c3 -8 -11 -55 -31 -105 -29 -68 -42 -90 -56 -90 -24 0 -24 20 0 62 11 18
29 59 41 91 21 57 36 70 46 42z m5669 -25 c8 -16 15 -36 15 -44 0 -19 -143
-148 -244 -220 -79 -57 -118 -71 -55 -20 76 62 148 146 184 216 56 111 72 122
100 68z m199 -57 c8 -21 -10 -41 -24 -27 -11 11 -3 44 10 44 4 0 11 -8 14 -17z
m-348 -37 c-16 -11 -49 -38 -74 -59 -24 -21 -47 -35 -51 -32 -6 7 35 46 103
96 22 16 42 26 45 23 3 -4 -7 -16 -23 -28z m420 -112 c28 -68 -1 -101 -31 -35
-17 40 -15 71 5 71 6 0 18 -16 26 -36z m-201 9 c0 -9 -97 -96 -182 -161 -32
-25 -48 -31 -67 -26 -25 6 -23 8 32 50 31 24 88 69 126 99 64 52 91 63 91 38z
m-5856 -86 c-20 -54 -55 -67 -45 -16 9 47 35 84 49 70 8 -8 7 -22 -4 -54z
m6315 11 c9 -12 16 -28 16 -35 0 -14 -58 -83 -69 -83 -4 0 -15 16 -24 35 -16
35 -16 35 14 70 36 41 43 42 63 13z m1045 -22 c29 -47 26 -58 -4 -14 -14 20
-25 39 -25 42 0 13 10 4 29 -28z m-7560 -30 c12 -14 5 -46 -9 -46 -17 0 -61
43 -56 56 3 8 0 11 -10 7 -15 -6 -17 -2 -8 20 5 13 10 13 39 -4 18 -11 38 -26
44 -33z m6116 -27 l19 -42 -34 -29 c-19 -16 -52 -38 -72 -49 -21 -11 -45 -30
-54 -44 -9 -13 -25 -27 -35 -30 -11 -4 -57 -35 -102 -69 -92 -71 -123 -89
-139 -84 -6 2 10 22 37 44 26 21 60 49 74 61 32 26 23 39 -18 25 -17 -6 -32
-8 -35 -4 -8 14 32 50 115 104 46 30 91 63 99 73 24 29 111 95 119 91 4 -3 16
-24 26 -47z m-1115 -53 c0 -6 -104 -72 -150 -96 -73 -37 -29 4 59 56 70 40 91
50 91 40z m1359 -31 c10 -28 10 -39 1 -50 -18 -22 -25 -19 -39 20 -10 28 -10
39 -1 50 18 22 25 19 39 -20z m-6426 11 c17 -13 17 -16 2 -46 -9 -18 -14 -38
-11 -46 9 -23 -13 -26 -43 -5 -16 11 -31 32 -33 46 -3 13 -2 22 2 20 4 -2 12
7 18 20 13 28 37 32 65 11z m192 -11 c0 -11 -8 -21 -17 -23 -14 -3 -18 3 -18
23 0 20 4 26 18 23 9 -2 17 -12 17 -23z m-55 -124 c-27 -46 -49 -66 -61 -54
-10 10 -6 21 15 53 22 34 30 39 41 30 10 -9 12 -17 5 -29z m7904 -35 c40 -71
44 -85 20 -65 -14 12 -74 120 -74 134 0 17 22 -12 54 -69z m-831 -51 c49 -70
108 -177 104 -189 -2 -6 -11 3 -20 19 -8 17 -43 68 -76 115 -34 47 -61 88 -61
92 0 20 24 4 53 -37z m-7325 19 c26 -18 27 -38 3 -82 l-17 -34 -32 27 -32 26
20 40 c23 44 27 45 58 23z m6622 0 c0 -8 -5 -12 -10 -9 -6 4 -8 11 -5 16 9 14
15 11 15 -7z m-6485 -156 c-8 -50 -10 -52 -25 -43 -7 4 -9 19 -4 38 8 39 12
47 25 47 7 0 8 -15 4 -42z m-826 -1234 c-83 -170 -180 -369 -216 -443 -35 -74
-66 -132 -68 -129 -15 15 418 897 433 883 2 -2 -65 -142 -149 -311z"/>
<path d="M12316 12053 c-23 -23 -26 -33 -21 -63 9 -46 22 -60 55 -60 48 0 89
74 70 126 -14 35 -68 33 -104 -3z"/>
<path d="M12502 11593 c-14 -6 -31 -34 -42 -74 -7 -23 -4 -33 17 -53 50 -50
103 -23 103 52 0 59 -35 93 -78 75z"/>
<path d="M5846 12525 c-3 -8 -1 -15 4 -15 6 0 10 7 10 15 0 8 -2 15 -4 15 -2
0 -6 -7 -10 -15z"/>
<path d="M5896 12494 c-4 -9 -4 -19 -1 -22 2 -3 7 3 11 12 4 9 4 19 1 22 -2 3
-7 -3 -11 -12z"/>
<path d="M15608 10063 c7 -3 16 -2 19 1 4 3 -2 6 -13 5 -11 0 -14 -3 -6 -6z"/>
<path d="M14521 16184 c-41 -52 -12 -124 49 -124 48 0 66 60 35 120 -20 38
-56 40 -84 4z"/>
<path d="M12665 15752 c-53 -11 -85 -72 -85 -161 0 -56 2 -61 33 -83 23 -16
46 -23 80 -23 42 0 52 4 78 33 16 18 29 40 29 50 0 28 -30 123 -47 148 -16 25
-58 42 -88 36z"/>
<path d="M10910 15122 c0 -12 68 -48 76 -39 11 10 -17 38 -35 35 -9 -1 -22 1
-28 5 -7 5 -13 4 -13 -1z"/>
<path d="M14035 14950 c-10 -11 -21 -38 -25 -60 -7 -37 -5 -44 22 -70 55 -55
108 -32 108 46 0 45 -13 82 -34 96 -20 14 -53 8 -71 -12z"/>
<path d="M14362 13822 c-17 -16 -34 -42 -37 -58 -4 -16 -9 -35 -11 -42 -2 -8
-1 -38 2 -68 6 -47 12 -59 41 -81 64 -49 173 -39 204 19 25 47 -18 199 -69
238 -38 30 -93 26 -130 -8z"/>
<path d="M15977 10859 c-17 -10 -39 -46 -51 -85 -10 -34 37 -84 79 -84 19 0
40 6 48 14 32 32 28 137 -6 158 -17 11 -49 9 -70 -3z"/>
<path d="M15908 10319 c-22 -13 -23 -55 -2 -63 49 -19 94 6 75 42 -16 31 -44
38 -73 21z"/>
<path d="M16210 10155 c-20 -24 -8 -60 20 -63 36 -4 68 22 54 44 -15 25 -60
36 -74 19z"/>
<path d="M10696 9411 c-7 -10 42 -21 61 -14 7 3 13 9 13 14 0 12 -67 12 -74 0z"/>
<path d="M10800 9401 c0 -11 49 -21 55 -11 3 4 -5 10 -18 14 -30 8 -37 7 -37
-3z"/>
<path d="M10915 9400 c-4 -6 -16 -8 -28 -4 -17 5 -19 3 -11 -5 14 -15 40 -17
79 -7 27 8 28 9 10 16 -28 12 -43 12 -50 0z"/>
<path d="M11110 9390 c0 -5 15 -10 33 -10 24 0 28 3 17 10 -20 13 -50 13 -50
0z"/>
<path d="M9343 7588 c-26 -12 -56 -82 -48 -109 4 -11 20 -26 37 -35 44 -23 84
-5 93 43 8 46 -2 91 -25 103 -22 12 -29 12 -57 -2z"/>
<path d="M4615 7236 c-26 -19 -16 -61 15 -61 21 0 26 5 28 31 4 36 -16 50 -43
30z"/>
<path d="M7934 7113 c7 -28 5 -31 -13 -26 -16 4 -21 1 -21 -13 0 -14 -3 -15
-12 -6 -16 16 -31 15 -25 -1 3 -8 -6 -12 -27 -12 -29 0 -31 -3 -34 -38 -3 -32
-7 -39 -31 -43 -37 -8 -32 -29 21 -89 57 -64 39 -69 -23 -7 -55 55 -59 58 -59
42 0 -26 87 -101 163 -141 45 -23 100 -54 122 -69 89 -60 298 -144 475 -191
61 -16 281 -49 326 -49 14 0 14 63 0 72 -6 4 -27 8 -45 8 -50 0 -26 18 29 22
44 3 45 4 48 41 3 34 0 39 -27 48 -41 14 -30 29 15 22 35 -6 36 -5 25 16 -10
18 -9 21 9 21 33 0 23 18 -17 30 -21 7 -45 18 -53 25 -8 6 -51 19 -95 28 -137
29 -230 62 -227 80 2 12 -12 18 -55 27 -159 31 -332 108 -422 187 l-53 47 6
-31z m679 -540 c-7 -2 -19 -2 -25 0 -7 3 -2 5 12 5 14 0 19 -2 13 -5z"/>
<path d="M9844 6979 c-24 -27 -23 -87 2 -130 48 -81 182 -41 160 47 -4 15 -24
45 -45 66 -45 44 -87 50 -117 17z"/>
<path d="M9905 5969 c-44 -11 -83 -23 -87 -27 -5 -5 2 -18 15 -30 23 -22 28
-22 98 -12 96 14 125 26 110 44 -8 10 -9 16 -1 21 20 13 9 25 -22 24 -18 0
-69 -9 -113 -20z m42 -35 c-3 -3 -12 -4 -19 -1 -8 3 -5 6 6 6 11 1 17 -2 13
-5z m-64 -11 c-7 -2 -21 -2 -30 0 -10 3 -4 5 12 5 17 0 24 -2 18 -5z"/>
<path d="M10440 5968 c-41 -44 -10 -118 43 -104 30 7 61 68 53 102 -5 20 -13
24 -41 24 -22 0 -41 -8 -55 -22z"/>
<path d="M9330 5920 c0 -5 5 -10 10 -10 6 0 10 5 10 10 0 6 -4 10 -10 10 -5 0
-10 -4 -10 -10z"/>
<path d="M9370 5910 c0 -5 12 -10 26 -10 14 0 23 4 19 10 -3 6 -15 10 -26 10
-10 0 -19 -4 -19 -10z"/>
<path d="M9928 5881 c-77 -17 -109 -31 -73 -31 18 0 18 -1 -1 -15 -18 -14 -18
-14 11 -15 l30 -1 -25 -14 c-32 -18 -17 -19 101 -3 97 13 114 27 88 74 -15 28
-26 28 -131 5z"/>
<path d="M6382 5836 c-17 -37 -15 -45 4 -18 8 12 14 27 12 33 -2 6 -9 -1 -16
-15z"/>
<path d="M9970 5774 c-8 -1 -36 -6 -62 -9 -45 -6 -48 -8 -48 -36 0 -34 -3 -34
134 -14 102 14 120 20 92 31 -9 3 -16 12 -16 20 0 13 -56 18 -100 8z"/>
<path d="M9050 5702 c0 -10 70 -25 79 -17 7 8 -2 13 -41 20 -23 4 -38 3 -38
-3z"/>
<path d="M9725 5504 c-66 -7 -148 -13 -183 -13 -71 -1 -85 -15 -58 -56 13 -20
25 -25 64 -27 l47 -1 -50 -6 c-53 -6 -63 -19 -51 -67 6 -21 12 -24 59 -25 l52
-1 -50 -11 c-46 -11 -50 -14 -53 -44 l-3 -33 303 1 c167 0 317 -1 333 -3 29
-3 30 -2 31 42 1 25 4 83 7 130 3 47 2 92 -3 99 -19 31 -234 38 -445 15z"/>
<path d="M9220 5222 c0 -5 7 -13 16 -16 25 -10 94 -7 94 4 0 6 -8 10 -17 10
-10 0 -35 3 -55 6 -23 4 -38 3 -38 -4z"/>
<path d="M6537 4085 c-28 -29 -40 -76 -31 -124 13 -62 106 -93 152 -51 52 48
-3 200 -71 200 -13 0 -36 -11 -50 -25z"/>
</g>
</svg>
